<?xml version="1.0" encoding="UTF-8"?>
<svg width="20px" height="40px" viewBox="0 0 20 40" version="1.1" xmlns="http://www.w3.org/2000/svg" xmlns:xlink="http://www.w3.org/1999/xlink">
    <title>0021 - Exclamation Mark</title>
    <g id="Original-/-Overview" stroke="none" stroke-width="1" fill="none" fill-rule="evenodd">
        <g id="Original" transform="translate(-40.000000, -110.000000)" fill="#59FFF8">
            <path d="M49,122 L51,122 C51.5522847,122 52,122.447715 52,123 L52,131 C52,131.552285 51.5522847,132 51,132 L49,132 C48.4477153,132 48,131.552285 48,131 L48,123 C48,122.447715 48.4477153,122 49,122 Z M49,134 L51,134 C51.5522847,134 52,134.447715 52,135 L52,137 C52,137.552285 51.5522847,138 51,138 L49,138 C48.4477153,138 48,137.552285 48,137 L48,135 C48,134.447715 48.4477153,134 49,134 Z" id="Shape"></path>
        </g>
    </g>
</svg>