<?xml version="1.0" encoding="UTF-8"?>
<svg width="20px" height="40px" viewBox="0 0 20 40" version="1.1" xmlns="http://www.w3.org/2000/svg" xmlns:xlink="http://www.w3.org/1999/xlink">
    <title>0022 - Quotation Mark</title>
    <g id="Original-/-Overview" stroke="none" stroke-width="1" fill="none" fill-rule="evenodd">
        <g id="Original" transform="translate(-540.000000, -110.000000)" fill="#59FFF8">
            <path d="M546,122 L548,122 C548.552285,122 549,122.447715 549,123 L549,127 C549,127.552285 548.552285,128 548,128 L546,128 C545.447715,128 545,127.552285 545,127 L545,123 C545,122.447715 545.447715,122 546,122 Z M552,122 L554,122 C554.552285,122 555,122.447715 555,123 L555,127 C555,127.552285 554.552285,128 554,128 L552,128 C551.447715,128 551,127.552285 551,127 L551,123 C551,122.447715 551.447715,122 552,122 Z" id="Shape"></path>
        </g>
    </g>
</svg>