<?xml version="1.0" encoding="UTF-8"?>
<svg width="20px" height="40px" viewBox="0 0 20 40" version="1.1" xmlns="http://www.w3.org/2000/svg" xmlns:xlink="http://www.w3.org/1999/xlink">
    <title>0023 - Number Sign</title>
    <g id="Original-/-Overview" stroke="none" stroke-width="1" fill="none" fill-rule="evenodd">
        <g id="Original" transform="translate(-360.000000, -110.000000)" fill="#59FFF8">
            <path d="M368,122 C368.552285,122 369,122.447715 369,123 L369,125 L371,125 L371,123 C371,122.447715 371.447715,122 372,122 L374,122 C374.552285,122 375,122.447715 375,123 L375,125 L377,125 C377.552285,125 378,125.447715 378,126 L378,128 C378,128.552285 377.552285,129 377,129 L375,129 L375,131 L377,131 C377.552285,131 378,131.447715 378,132 L378,134 C378,134.552285 377.552285,135 377,135 L375,135 L375,137 C375,137.552285 374.552285,138 374,138 L372,138 C371.447715,138 371,137.552285 371,137 L371,135 L369,135 L369,137 C369,137.552285 368.552285,138 368,138 L366,138 C365.447715,138 365,137.552285 365,137 L365,135 L363,135 C362.447715,135 362,134.552285 362,134 L362,132 C362,131.447715 362.447715,131 363,131 L365,131 L365,129 L363,129 C362.447715,129 362,128.552285 362,128 L362,126 C362,125.447715 362.447715,125 363,125 L365,125 L365,123 C365,122.447715 365.447715,122 366,122 L368,122 Z M371,129 L369,129 L369,131 L371,131 L371,129 Z" id="Shape"></path>
        </g>
    </g>
</svg>