<?xml version="1.0" encoding="UTF-8"?>
<svg width="20px" height="40px" viewBox="0 0 20 40" version="1.1" xmlns="http://www.w3.org/2000/svg" xmlns:xlink="http://www.w3.org/1999/xlink">
    <title>0024 - Dollar Sign</title>
    <g id="Original-/-Overview" stroke="none" stroke-width="1" fill="none" fill-rule="evenodd">
        <g id="Original" transform="translate(-260.000000, -70.000000)" fill="#59FFF8">
            <path d="M271,80 C271.552285,80 272,80.4477153 272,81 L272,82 L276,82 C276.552285,82 277,82.4477153 277,83 L277,85 C277,85.5522847 276.552285,86 276,86 L272,86 L272,88 L274,88 C276.209139,88 278,89.790861 278,92 L278,94 C278,96.209139 276.209139,98 274,98 L272,98 L272,99 C272,99.5522847 271.552285,100 271,100 L269,100 C268.447715,100 268,99.5522847 268,99 L268,98 L264,98 C263.447715,98 263,97.5522847 263,97 L263,95 C263,94.4477153 263.447715,94 264,94 L268,94 L268,92 L266,92 C263.790861,92 262,90.209139 262,88 L262,86 C262,83.790861 263.790861,82 266,82 L268,82 L268,81 C268,80.4477153 268.447715,80 269,80 L271,80 Z M272,94 L273,94 C273.552285,94 274,93.5522847 274,93 C274,92.4477153 273.552285,92 273,92 L272,92 L272,94 Z M268,88 L268,86 L267,86 C266.447715,86 266,86.4477153 266,87 C266,87.5522847 266.447715,88 267,88 L268,88 Z" id="Shape"></path>
        </g>
    </g>
</svg>