<?xml version="1.0" encoding="UTF-8"?>
<svg width="20px" height="40px" viewBox="0 0 20 40" version="1.1" xmlns="http://www.w3.org/2000/svg" xmlns:xlink="http://www.w3.org/1999/xlink">
    <title>0025 - Percent Sign</title>
    <g id="Original-/-Overview" stroke="none" stroke-width="1" fill="none" fill-rule="evenodd">
        <g id="Original" transform="translate(-360.000000, -70.000000)" fill="#59FFF8">
            <path d="M377,82 C377.552285,82 378,82.4477153 378,83 L378,84.3357864 C378,84.6010029 377.894643,84.8553568 377.707107,85.0428932 L365.042893,97.7071068 C364.855357,97.8946432 364.601003,98 364.335786,98 L363,98 C362.447715,98 362,97.5522847 362,97 L362,95.6642136 C362,95.3989971 362.105357,95.1446432 362.292893,94.9571068 L374.957107,82.2928932 C375.144643,82.1053568 375.398997,82 375.664214,82 L377,82 Z M374.5,91 C376.432997,91 378,92.5670034 378,94.5 C378,96.4329966 376.432997,98 374.5,98 C372.567003,98 371,96.4329966 371,94.5 C371,92.5670034 372.567003,91 374.5,91 Z M374.5,94 C374.223858,94 374,94.2238576 374,94.5 C374,94.7761424 374.223858,95 374.5,95 C374.776142,95 375,94.7761424 375,94.5 C375,94.2238576 374.776142,94 374.5,94 Z M365.5,82 C367.432997,82 369,83.5670034 369,85.5 C369,87.4329966 367.432997,89 365.5,89 C363.567003,89 362,87.4329966 362,85.5 C362,83.5670034 363.567003,82 365.5,82 Z M365.5,85 C365.223858,85 365,85.2238576 365,85.5 C365,85.7761424 365.223858,86 365.5,86 C365.776142,86 366,85.7761424 366,85.5 C366,85.2238576 365.776142,85 365.5,85 Z" id="Shape"></path>
        </g>
    </g>
</svg>