<?xml version="1.0" encoding="UTF-8"?>
<svg width="20px" height="40px" viewBox="0 0 20 40" version="1.1" xmlns="http://www.w3.org/2000/svg" xmlns:xlink="http://www.w3.org/1999/xlink">
    <title>002A - Asterisk</title>
    <g id="Original-/-Overview" stroke="none" stroke-width="1" fill="none" fill-rule="evenodd">
        <g id="Original" transform="translate(-380.000000, -70.000000)" fill="#59FFF8">
            <path d="M392,83 L392,84 L394,84 C394.552285,84 395,84.4477153 395,85 L395,86 C395,86.5522847 394.552285,87 394,87 L392.5,87 L393.707107,88.2071068 C393.894643,88.3946432 394,88.6489971 394,88.9142136 L394,90 C394,90.5522847 393.552285,91 393,91 L392.414214,91 C392.148997,91 391.894643,90.8946432 391.707107,90.7071068 L390,89 L388.292893,90.7071068 C388.105357,90.8946432 387.851003,91 387.585786,91 L387,91 C386.447715,91 386,90.5522847 386,90 L386,88.9142136 C386,88.6489971 386.105357,88.3946432 386.292893,88.2071068 L387.5,87 L386,87 C385.447715,87 385,86.5522847 385,86 L385,85 C385,84.4477153 385.447715,84 386,84 L388,84 L388,83 C388,82.4477153 388.447715,82 389,82 L391,82 C391.552285,82 392,82.4477153 392,83 Z" id="Path-96"></path>
        </g>
    </g>
</svg>