<?xml version="1.0" encoding="UTF-8"?>
<svg width="20px" height="40px" viewBox="0 0 20 40" version="1.1" xmlns="http://www.w3.org/2000/svg" xmlns:xlink="http://www.w3.org/1999/xlink">
    <title>0030 - Digit Zero</title>
    <g id="Original-/-Overview" stroke="none" stroke-width="1" fill="none" fill-rule="evenodd">
        <g id="Original" transform="translate(-40.000000, -70.000000)" fill="#59FFF8">
            <path d="M54,82 C56.209139,82 58,83.790861 58,86 L58,94 C58,96.209139 56.209139,98 54,98 L46,98 C43.790861,98 42,96.209139 42,94 L42,86 C42,83.790861 43.790861,82 46,82 L54,82 Z M53,86 L47,86 C46.4871642,86 46.0644928,86.3860402 46.0067277,86.8833789 L46,87 L46,93 C46,93.5128358 46.3860402,93.9355072 46.8833789,93.9932723 L47,94 L53,94 C53.5128358,94 53.9355072,93.6139598 53.9932723,93.1166211 L54,93 L54,87 C54,86.4477153 53.5522847,86 53,86 Z M52,87 C52.5522847,87 53,87.4477153 53,88 L53,88.5857864 C53,88.8510029 52.8946432,89.1053568 52.7071068,89.2928932 L49.2928932,92.7071068 C49.1053568,92.8946432 48.8510029,93 48.5857864,93 L48,93 C47.4477153,93 47,92.5522847 47,92 L47,91.4142136 C47,91.1489971 47.1053568,90.8946432 47.2928932,90.7071068 L50.7071068,87.2928932 C50.8946432,87.1053568 51.1489971,87 51.4142136,87 L52,87 Z" id="Shape"></path>
        </g>
    </g>
</svg>