<?xml version="1.0" encoding="UTF-8"?>
<svg width="20px" height="40px" viewBox="0 0 20 40" version="1.1" xmlns="http://www.w3.org/2000/svg" xmlns:xlink="http://www.w3.org/1999/xlink">
    <title>0031 - Digit One</title>
    <g id="Original-/-Overview" stroke="none" stroke-width="1" fill="none" fill-rule="evenodd">
        <g id="Original" transform="translate(-60.000000, -70.000000)" fill="#59FFF8">
            <path d="M63,98 L77,98 C77.5522847,98 78,97.5522847 78,97 L78,95 C78,94.4477153 77.5522847,94 77,94 L72,94 L72,86 C72,83.790861 70.209139,82 68,82 L63,82 C62.4477153,82 62,82.4477153 62,83 L62,85 C62,85.5522847 62.4477153,86 63,86 L67,86 C67.5522847,86 68,86.4477153 68,87 L68,94 L63,94 C62.4477153,94 62,94.4477153 62,95 L62,97 C62,97.5522847 62.4477153,98 63,98 Z" id="Path-28"></path>
        </g>
    </g>
</svg>