<?xml version="1.0" encoding="UTF-8"?>
<svg width="20px" height="40px" viewBox="0 0 20 40" version="1.1" xmlns="http://www.w3.org/2000/svg" xmlns:xlink="http://www.w3.org/1999/xlink">
    <title>0033 - Digit Three</title>
    <g id="Original-/-Overview" stroke="none" stroke-width="1" fill="none" fill-rule="evenodd">
        <g id="Original" transform="translate(-100.000000, -70.000000)" fill="#59FFF8">
            <path d="M103,82 L114,82 C116.209139,82 118,83.790861 118,86 L118,94 C118,96.209139 116.209139,98 114,98 L103,98 C102.447715,98 102,97.5522847 102,97 L102,95 C102,94.4477153 102.447715,94 103,94 L113,94 C113.552285,94 114,93.5522847 114,93 L114,92 L107,92 C106.447715,92 106,91.5522847 106,91 L106,89 C106,88.4477153 106.447715,88 107,88 L114,88 L114,87 C114,86.4477153 113.552285,86 113,86 L103,86 C102.447715,86 102,85.5522847 102,85 L102,83 C102,82.4477153 102.447715,82 103,82 Z" id="Path-14-Copy-2"></path>
        </g>
    </g>
</svg>