<?xml version="1.0" encoding="UTF-8"?>
<svg width="20px" height="40px" viewBox="0 0 20 40" version="1.1" xmlns="http://www.w3.org/2000/svg" xmlns:xlink="http://www.w3.org/1999/xlink">
    <title>0034 - Digit Four</title>
    <g id="Original-/-Overview" stroke="none" stroke-width="1" fill="none" fill-rule="evenodd">
        <g id="Original" transform="translate(-120.000000, -70.000000)" fill="#59FFF8">
            <path d="M122,83 L122,91 C122,91.5522847 122.447715,92 123,92 L134,92 L134,97 C134,97.5522847 134.447715,98 135,98 L137,98 C137.552285,98 138,97.5522847 138,97 L138,83 C138,82.4477153 137.552285,82 137,82 L135,82 C134.447715,82 134,82.4477153 134,83 L134,88 L126,88 L126,83 C126,82.4477153 125.552285,82 125,82 L123,82 C122.447715,82 122,82.4477153 122,83 Z" id="Path-29"></path>
        </g>
    </g>
</svg>