<?xml version="1.0" encoding="UTF-8"?>
<svg width="20px" height="40px" viewBox="0 0 20 40" version="1.1" xmlns="http://www.w3.org/2000/svg" xmlns:xlink="http://www.w3.org/1999/xlink">
    <title>0035 - Digit Five</title>
    <g id="Original-/-Overview" stroke="none" stroke-width="1" fill="none" fill-rule="evenodd">
        <g id="Original" transform="translate(-140.000000, -70.000000)" fill="#59FFF8">
            <path d="M154,98 L143,98 C142.447715,98 142,97.5522847 142,97 L142,95 C142,94.4477153 142.447715,94 143,94 L153,94 C153.552285,94 154,93.5522847 154,93 C154,92.4477153 153.552285,92 153,92 L143,92 C142.447715,92 142,91.5522847 142,91 L142,83 C142,82.4477153 142.447715,82 143,82 L157,82 C157.552285,82 158,82.4477153 158,83 L158,85 C158,85.5522847 157.552285,86 157,86 L146,86 L146,88 L154,88 C156.209139,88 158,89.790861 158,92 L158,94 C158,96.209139 156.209139,98 154,98 Z" id="Path-19-Copy"></path>
        </g>
    </g>
</svg>