<?xml version="1.0" encoding="UTF-8"?>
<svg width="20px" height="40px" viewBox="0 0 20 40" version="1.1" xmlns="http://www.w3.org/2000/svg" xmlns:xlink="http://www.w3.org/1999/xlink">
    <title>0036 - Digit Six</title>
    <g id="Original-/-Overview" stroke="none" stroke-width="1" fill="none" fill-rule="evenodd">
        <g id="Original" transform="translate(-160.000000, -70.000000)" fill="#59FFF8">
            <path d="M175,82 C175.512836,82 175.935507,82.3860402 175.993272,82.8833789 L176,83 L176,85 C176,85.5128358 175.61396,85.9355072 175.116621,85.9932723 L175,86 L167,86 C166.487164,86 166.064493,86.3860402 166.006728,86.8833789 L166,87 L166,88 L174,88 C176.142195,88 177.891079,89.6839685 177.995105,91.8003597 L178,92 L178,94 C178,96.1421954 176.316032,97.8910789 174.19964,97.9951047 L174,98 L166,98 C163.857805,98 162.108921,96.3160315 162.004895,94.1996403 L162,94 L162,86 C162,83.8578046 163.683968,82.1089211 165.80036,82.0048953 L166,82 L175,82 Z M173,92 L166,92 L166,93 C166,93.5128358 166.38604,93.9355072 166.883379,93.9932723 L167,94 L173,94 C173.552285,94 174,93.5522847 174,93 C174,92.4871642 173.61396,92.0644928 173.116621,92.0067277 L173,92 Z" id="Shape"></path>
        </g>
    </g>
</svg>