<?xml version="1.0" encoding="UTF-8"?>
<svg width="20px" height="40px" viewBox="0 0 20 40" version="1.1" xmlns="http://www.w3.org/2000/svg" xmlns:xlink="http://www.w3.org/1999/xlink">
    <title>0037 - Digit Seven</title>
    <g id="Original-/-Overview" stroke="none" stroke-width="1" fill="none" fill-rule="evenodd">
        <g id="Original" transform="translate(-180.000000, -70.000000)" fill="#59FFF8">
            <path d="M183,82 L194,82 C196.209139,82 198,83.790861 198,86 L198,97 C198,97.5522847 197.552285,98 197,98 L195,98 C194.447715,98 194,97.5522847 194,97 L194,94 L191,94 C190.447715,94 190,93.5522847 190,93 L190,91 C190,90.4477153 190.447715,90 191,90 L194,90 L194,87 C194,86.4477153 193.552285,86 193,86 L183,86 C182.447715,86 182,85.5522847 182,85 L182,83 C182,82.4477153 182.447715,82 183,82 Z" id="Path-48"></path>
        </g>
    </g>
</svg>