<?xml version="1.0" encoding="UTF-8"?>
<svg width="20px" height="40px" viewBox="0 0 20 40" version="1.1" xmlns="http://www.w3.org/2000/svg" xmlns:xlink="http://www.w3.org/1999/xlink">
    <title>0038 - Digit Eight</title>
    <g id="Original-/-Overview" stroke="none" stroke-width="1" fill="none" fill-rule="evenodd">
        <g id="Original" transform="translate(-200.000000, -70.000000)" fill="#59FFF8">
            <path d="M214,82 C216.209139,82 218,83.790861 218,86 L218,88 C218,88.7290322 217.804967,89.4125119 217.464229,90.0011092 C217.805185,90.5882535 218,91.271376 218,92 L218,94 C218,96.209139 216.209139,98 214,98 L206,98 C203.790861,98 202,96.209139 202,94 L202,92 C202,91.271376 202.194815,90.5882535 202.535198,89.9998796 C202.195033,89.4125119 202,88.7290322 202,88 L202,86 C202,83.790861 203.790861,82 206,82 L214,82 Z M213,92 L207,92 C206.447715,92 206,92.4477153 206,93 C206,93.5128358 206.38604,93.9355072 206.883379,93.9932723 L207,94 L213,94 C213.552285,94 214,93.5522847 214,93 C214,92.4871642 213.61396,92.0644928 213.116621,92.0067277 L213,92 Z M213,86 L207,86 C206.447715,86 206,86.4477153 206,87 C206,87.5128358 206.38604,87.9355072 206.883379,87.9932723 L207,88 L213,88 C213.552285,88 214,87.5522847 214,87 C214,86.4871642 213.61396,86.0644928 213.116621,86.0067277 L213,86 Z" id="Shape"></path>
        </g>
    </g>
</svg>