<?xml version="1.0" encoding="UTF-8"?>
<svg width="20px" height="40px" viewBox="0 0 20 40" version="1.1" xmlns="http://www.w3.org/2000/svg" xmlns:xlink="http://www.w3.org/1999/xlink">
    <title>0039 - Digit Nine</title>
    <g id="Original-/-Overview" stroke="none" stroke-width="1" fill="none" fill-rule="evenodd">
        <g id="Original" transform="translate(-220.000000, -70.000000)" fill="#59FFF8">
            <path d="M225,98 C224.487164,98 224.064493,97.6139598 224.006728,97.1166211 L224,97 L224,95 C224,94.4871642 224.38604,94.0644928 224.883379,94.0067277 L225,94 L233,94 C233.512836,94 233.935507,93.6139598 233.993272,93.1166211 L234,93 L234,92 L226,92 C223.857805,92 222.108921,90.3160315 222.004895,88.1996403 L222,88 L222,86 C222,83.8578046 223.683968,82.1089211 225.80036,82.0048953 L226,82 L234,82 C236.142195,82 237.891079,83.6839685 237.995105,85.8003597 L238,86 L238,94 C238,96.1421954 236.316032,97.8910789 234.19964,97.9951047 L234,98 L225,98 Z M227,88 L234,88 L234,87 C234,86.4871642 233.61396,86.0644928 233.116621,86.0067277 L233,86 L227,86 C226.447715,86 226,86.4477153 226,87 C226,87.5128358 226.38604,87.9355072 226.883379,87.9932723 L227,88 Z" id="Shape"></path>
        </g>
    </g>
</svg>