<?xml version="1.0" encoding="UTF-8"?>
<svg width="20px" height="40px" viewBox="0 0 20 40" version="1.1" xmlns="http://www.w3.org/2000/svg" xmlns:xlink="http://www.w3.org/1999/xlink">
    <title>003A - Colon</title>
    <g id="Original-/-Overview" stroke="none" stroke-width="1" fill="none" fill-rule="evenodd">
        <g id="Original" transform="translate(-80.000000, -110.000000)" fill="#59FFF8">
            <path d="M91,136 L89,136 C88.4477153,136 88,135.552285 88,135 L88,133 C88,132.447715 88.4477153,132 89,132 L91,132 C91.5522847,132 92,132.447715 92,133 L92,135 C92,135.552285 91.5522847,136 91,136 Z M91,130 L89,130 C88.4477153,130 88,129.552285 88,129 L88,127 C88,126.447715 88.4477153,126 89,126 L91,126 C91.5522847,126 92,126.447715 92,127 L92,129 C92,129.552285 91.5522847,130 91,130 Z" id="Shape"></path>
        </g>
    </g>
</svg>