<?xml version="1.0" encoding="UTF-8"?>
<svg width="20px" height="40px" viewBox="0 0 20 40" version="1.1" xmlns="http://www.w3.org/2000/svg" xmlns:xlink="http://www.w3.org/1999/xlink">
    <title>003C - Less-than Sign</title>
    <g id="Original-/-Overview" stroke="none" stroke-width="1" fill="none" fill-rule="evenodd">
        <g id="Original" transform="translate(-240.000000, -110.000000)" fill="#59FFF8">
            <path d="M252.664214,138 L254,138 C254.552285,138 255,137.552285 255,137 L255,135.664214 C255,135.398997 254.894643,135.144643 254.707107,134.957107 L249.75,130 L254.707107,125.042893 C254.894643,124.855357 255,124.601003 255,124.335786 L255,123 C255,122.447715 254.552285,122 254,122 L252.664214,122 C252.398997,122 252.144643,122.105357 251.957107,122.292893 L245.292893,128.957107 C245.105357,129.144643 245,129.398997 245,129.664214 L245,130.335786 C245,130.601003 245.105357,130.855357 245.292893,131.042893 L251.957107,137.707107 C252.144643,137.894643 252.398997,138 252.664214,138 Z" id="Path-57"></path>
        </g>
    </g>
</svg>