<?xml version="1.0" encoding="UTF-8"?>
<svg width="20px" height="40px" viewBox="0 0 20 40" version="1.1" xmlns="http://www.w3.org/2000/svg" xmlns:xlink="http://www.w3.org/1999/xlink">
    <title>003E - Greater-than Sign</title>
    <g id="Original-/-Overview" stroke="none" stroke-width="1" fill="none" fill-rule="evenodd">
        <g id="Original" transform="translate(-260.000000, -110.000000)" fill="#59FFF8">
            <path d="M267.335786,138 L266,138 C265.447715,138 265,137.552285 265,137 L265,135.664214 C265,135.398997 265.105357,135.144643 265.292893,134.957107 L270.25,130 L265.292893,125.042893 C265.105357,124.855357 265,124.601003 265,124.335786 L265,123 C265,122.447715 265.447715,122 266,122 L267.335786,122 C267.601003,122 267.855357,122.105357 268.042893,122.292893 L274.707107,128.957107 C274.894643,129.144643 275,129.398997 275,129.664214 L275,130.335786 C275,130.601003 274.894643,130.855357 274.707107,131.042893 L268.042893,137.707107 C267.855357,137.894643 267.601003,138 267.335786,138 Z" id="Path-57"></path>
        </g>
    </g>
</svg>