<?xml version="1.0" encoding="UTF-8"?>
<svg width="20px" height="40px" viewBox="0 0 20 40" version="1.1" xmlns="http://www.w3.org/2000/svg" xmlns:xlink="http://www.w3.org/1999/xlink">
    <title>003F - Question Mark</title>
    <g id="Original-/-Overview" stroke="none" stroke-width="1" fill="none" fill-rule="evenodd">
        <g id="Original" transform="translate(-60.000000, -110.000000)" fill="#59FFF8">
            <path d="M72,138 L70,138 C69.4477153,138 69,137.552285 69,137 L69,135 C69,134.447715 69.4477153,134 70,134 L72,134 C72.5522847,134 73,134.447715 73,135 L73,137 C73,137.552285 72.5522847,138 72,138 Z M70,132 L74,132 C76.209139,132 78,130.209139 78,128 L78,126 C78,123.790861 76.209139,122 74,122 L63,122 C62.4477153,122 62,122.447715 62,123 L62,125 C62,125.552285 62.4477153,126 63,126 L73,126 C73.5522847,126 74,126.447715 74,127 C74,127.552285 73.5522847,128 73,128 L70,128 C69.4477153,128 69,128.447715 69,129 L69,131 C69,131.552285 69.4477153,132 70,132 Z" id="Shape"></path>
        </g>
    </g>
</svg>