<?xml version="1.0" encoding="UTF-8"?>
<svg width="20px" height="40px" viewBox="0 0 20 40" version="1.1" xmlns="http://www.w3.org/2000/svg" xmlns:xlink="http://www.w3.org/1999/xlink">
    <title>0041 - A</title>
    <g id="Original-/-Overview" stroke="none" stroke-width="1" fill="none" fill-rule="evenodd">
        <g id="Original" transform="translate(-40.000000, -30.000000)" fill="#59FFF8">
            <path d="M48,54 L48,50 L54,50 L54,47 C54,46.4871642 53.6139598,46.0644928 53.1166211,46.0067277 L53,46 L47,46 C46.4871642,46 46.0644928,46.3860402 46.0067277,46.8833789 L46,47 L46,57 C46,57.5522847 45.5522847,58 45,58 L43,58 C42.4477153,58 42,57.5522847 42,57 L42,46 C42,43.790861 43.790861,42 46,42 L54,42 C56.209139,42 58,43.790861 58,46 L58,57 C58,57.5522847 57.5522847,58 57,58 L55,58 C54.4477153,58 54,57.5522847 54,57 L54,54 L48,54 Z" id="A"></path>
        </g>
    </g>
</svg>