<?xml version="1.0" encoding="UTF-8"?>
<svg width="20px" height="40px" viewBox="0 0 20 40" version="1.1" xmlns="http://www.w3.org/2000/svg" xmlns:xlink="http://www.w3.org/1999/xlink">
    <title>0042 - B</title>
    <g id="Original-/-Overview" stroke="none" stroke-width="1" fill="none" fill-rule="evenodd">
        <g id="Original" transform="translate(-60.000000, -30.000000)" fill="#59FFF8">
            <path d="M74,42 C76.209139,42 78,43.790861 78,46 L78,48 C78,48.7290322 77.8049665,49.4125119 77.4642293,50.0011092 C77.8051848,50.5882535 78,51.271376 78,52 L78,54 C78,56.209139 76.209139,58 74,58 L63,58 C62.4477153,58 62,57.5522847 62,57 L62,48 L73,48 C73.5522847,48 74,47.5522847 74,47 C74,46.4477153 73.5522847,46 73,46 L62,46 L62,43 C62,42.4477153 62.4477153,42 63,42 L74,42 Z M73,52 L66,52 L66,54 L73,54 C73.5522847,54 74,53.5522847 74,53 C74,52.4871642 73.6139598,52.0644928 73.1166211,52.0067277 L73,52 Z" id="B"></path>
        </g>
    </g>
</svg>