<?xml version="1.0" encoding="UTF-8"?>
<svg width="20px" height="40px" viewBox="0 0 20 40" version="1.1" xmlns="http://www.w3.org/2000/svg" xmlns:xlink="http://www.w3.org/1999/xlink">
    <title>0043 - C</title>
    <g id="Original-/-Overview" stroke="none" stroke-width="1" fill="none" fill-rule="evenodd">
        <g id="Original" transform="translate(-80.000000, -30.000000)" fill="#59FFF8">
            <path d="M86,42 L97,42 C97.5522847,42 98,42.4477153 98,43 L98,45 C98,45.5522847 97.5522847,46 97,46 L87,46 C86.4477153,46 86,46.4477153 86,47 L86,53 C86,53.5522847 86.4477153,54 87,54 L97,54 C97.5522847,54 98,54.4477153 98,55 L98,57 C98,57.5522847 97.5522847,58 97,58 L86,58 C83.790861,58 82,56.209139 82,54 L82,46 C82,43.790861 83.790861,42 86,42 Z" id="C"></path>
        </g>
    </g>
</svg>