<?xml version="1.0" encoding="UTF-8"?>
<svg width="20px" height="40px" viewBox="0 0 20 40" version="1.1" xmlns="http://www.w3.org/2000/svg" xmlns:xlink="http://www.w3.org/1999/xlink">
    <title>0044 - D</title>
    <g id="Original-/-Overview" stroke="none" stroke-width="1" fill="none" fill-rule="evenodd">
        <g id="Original" transform="translate(-100.000000, -30.000000)" fill="#59FFF8">
            <path d="M103,42 L114,42 C116.209139,42 118,43.790861 118,46 L118,54 C118,56.209139 116.209139,58 114,58 L103,58 C102.447715,58 102,57.5522847 102,57 L102,48 L106,48 L106,54 L113,54 C113.552285,54 114,53.5522847 114,53 L114,47 C114,46.4477153 113.552285,46 113,46 L102,46 L102,43 C102,42.4477153 102.447715,42 103,42 Z" id="D"></path>
        </g>
    </g>
</svg>