<?xml version="1.0" encoding="UTF-8"?>
<svg width="20px" height="40px" viewBox="0 0 20 40" version="1.1" xmlns="http://www.w3.org/2000/svg" xmlns:xlink="http://www.w3.org/1999/xlink">
    <title>0045 - E</title>
    <g id="Original-/-Overview" stroke="none" stroke-width="1" fill="none" fill-rule="evenodd">
        <g id="Original" transform="translate(-120.000000, -30.000000)" fill="#59FFF8">
            <path d="M126,42 L137,42 C137.552285,42 138,42.4477153 138,43 L138,45 C138,45.5522847 137.552285,46 137,46 L122,46 C122,43.790861 123.790861,42 126,42 Z M122,48 L133,48 C133.552285,48 134,48.4477153 134,49 L134,51 C134,51.5522847 133.552285,52 133,52 L126,52 L126,53 C126,53.5522847 126.447715,54 127,54 L137,54 C137.552285,54 138,54.4477153 138,55 L138,57 C138,57.5522847 137.552285,58 137,58 L126,58 C123.790861,58 122,56.209139 122,54 L122,48 Z" id="E"></path>
        </g>
    </g>
</svg>