<?xml version="1.0" encoding="UTF-8"?>
<svg width="20px" height="40px" viewBox="0 0 20 40" version="1.1" xmlns="http://www.w3.org/2000/svg" xmlns:xlink="http://www.w3.org/1999/xlink">
    <title>0046 - F</title>
    <g id="Original-/-Overview" stroke="none" stroke-width="1" fill="none" fill-rule="evenodd">
        <g id="Original" transform="translate(-140.000000, -30.000000)" fill="#59FFF8">
            <path d="M146,42 L157,42 C157.552285,42 158,42.4477153 158,43 L158,45 C158,45.5522847 157.552285,46 157,46 L142,46 C142,43.790861 143.790861,42 146,42 Z M142,48 L153,48 C153.552285,48 154,48.4477153 154,49 L154,51 C154,51.5522847 153.552285,52 153,52 L146,52 L146,57 C146,57.5522847 145.552285,58 145,58 L143,58 C142.447715,58 142,57.5522847 142,57 L142,48 Z" id="F"></path>
        </g>
    </g>
</svg>