<?xml version="1.0" encoding="UTF-8"?>
<svg width="20px" height="40px" viewBox="0 0 20 40" version="1.1" xmlns="http://www.w3.org/2000/svg" xmlns:xlink="http://www.w3.org/1999/xlink">
    <title>0048 - H</title>
    <g id="Original-/-Overview" stroke="none" stroke-width="1" fill="none" fill-rule="evenodd">
        <g id="Original" transform="translate(-180.000000, -30.000000)" fill="#59FFF8">
            <path d="M182,43 L182,57 C182,57.5522847 182.447715,58 183,58 L185,58 C185.552285,58 186,57.5522847 186,57 L186,43 C186,42.4477153 185.552285,42 185,42 L183,42 C182.447715,42 182,42.4477153 182,43 Z M198,43 L198,57 C198,57.5522847 197.552285,58 197,58 L195,58 C194.447715,58 194,57.5522847 194,57 L194,52 L188,52 L188,48 L194,48 L194,43 C194,42.4477153 194.447715,42 195,42 L197,42 C197.552285,42 198,42.4477153 198,43 Z" id="H"></path>
        </g>
    </g>
</svg>