<?xml version="1.0" encoding="UTF-8"?>
<svg width="20px" height="40px" viewBox="0 0 20 40" version="1.1" xmlns="http://www.w3.org/2000/svg" xmlns:xlink="http://www.w3.org/1999/xlink">
    <title>0049 - I</title>
    <g id="Original-/-Overview" stroke="none" stroke-width="1" fill="none" fill-rule="evenodd">
        <g id="Original" transform="translate(-200.000000, -30.000000)" fill="#59FFF8">
            <path d="M217,42 L203,42 C202.447715,42 202,42.4477153 202,43 L202,45 C202,45.5522847 202.447715,46 203,46 L217,46 C217.552285,46 218,45.5522847 218,45 L218,43 C218,42.4477153 217.552285,42 217,42 Z M217,58 L203,58 C202.447715,58 202,57.5522847 202,57 L202,55 C202,54.4477153 202.447715,54 203,54 L208,54 L208,48 L212,48 L212,54 L217,54 C217.552285,54 218,54.4477153 218,55 L218,57 C218,57.5522847 217.552285,58 217,58 Z" id="I"></path>
        </g>
    </g>
</svg>