<?xml version="1.0" encoding="UTF-8"?>
<svg width="20px" height="40px" viewBox="0 0 20 40" version="1.1" xmlns="http://www.w3.org/2000/svg" xmlns:xlink="http://www.w3.org/1999/xlink">
    <title>004A - J</title>
    <g id="Original-/-Overview" stroke="none" stroke-width="1" fill="none" fill-rule="evenodd">
        <g id="Original" transform="translate(-220.000000, -30.000000)" fill="#59FFF8">
            <path d="M237,42 L223,42 C222.447715,42 222,42.4477153 222,43 L222,45 C222,45.5522847 222.447715,46 223,46 L237,46 C237.552285,46 238,45.5522847 238,45 L238,43 C238,42.4477153 237.552285,42 237,42 Z M222,57 L222,55 C222,54.4477153 222.447715,54 223,54 L229,54 C229.552285,54 230,53.5522847 230,53 L230,48 L234,48 L234,54 C234,56.209139 232.209139,58 230,58 L223,58 C222.447715,58 222,57.5522847 222,57 Z" id="J"></path>
        </g>
    </g>
</svg>