<?xml version="1.0" encoding="UTF-8"?>
<svg width="20px" height="40px" viewBox="0 0 20 40" version="1.1" xmlns="http://www.w3.org/2000/svg" xmlns:xlink="http://www.w3.org/1999/xlink">
    <title>004B - K</title>
    <g id="Original-/-Overview" stroke="none" stroke-width="1" fill="none" fill-rule="evenodd">
        <g id="Original" transform="translate(-240.000000, -30.000000)" fill="#59FFF8">
            <path d="M242,43 L242,57 C242,57.5522847 242.447715,58 243,58 L245,58 C245.552285,58 246,57.5522847 246,57 L246,52 L248.835786,52 C249.101003,52 249.355357,52.1053568 249.542893,52.2928932 L254.957107,57.7071068 C255.144643,57.8946432 255.398997,58 255.664214,58 L257,58 C257.552285,58 258,57.5522847 258,57 L258,55.6642136 C258,55.3989971 257.894643,55.1446432 257.707107,54.9571068 L252.75,50 L257.707107,45.0428932 C257.894643,44.8553568 258,44.6010029 258,44.3357864 L258,43 C258,42.4477153 257.552285,42 257,42 L255.664214,42 C255.398997,42 255.144643,42.1053568 254.957107,42.2928932 L249.542893,47.7071068 C249.355357,47.8946432 249.101003,48 248.835786,48 L246,48 L246,43 C246,42.4477153 245.552285,42 245,42 L243,42 C242.447715,42 242,42.4477153 242,43 Z" id="K"></path>
        </g>
    </g>
</svg>