<?xml version="1.0" encoding="UTF-8"?>
<svg width="20px" height="40px" viewBox="0 0 20 40" version="1.1" xmlns="http://www.w3.org/2000/svg" xmlns:xlink="http://www.w3.org/1999/xlink">
    <title>004D - M</title>
    <g id="Original-/-Overview" stroke="none" stroke-width="1" fill="none" fill-rule="evenodd">
        <g id="Original" transform="translate(-280.000000, -30.000000)" fill="#59FFF8">
            <path d="M282,57 L282,46 C282,43.790861 283.790861,42 286,42 L294,42 C296.209139,42 298,43.790861 298,46 L298,57 C298,57.5522847 297.552285,58 297,58 L295,58 C294.447715,58 294,57.5522847 294,57 L294,47 C294,46.4477153 293.552285,46 293,46 L292,46 L292,53 C292,53.5522847 291.552285,54 291,54 L289,54 C288.447715,54 288,53.5522847 288,53 L288,46 L287,46 C286.447715,46 286,46.4477153 286,47 L286,57 C286,57.5522847 285.552285,58 285,58 L283,58 C282.447715,58 282,57.5522847 282,57 Z" id="M"></path>
        </g>
    </g>
</svg>