<?xml version="1.0" encoding="UTF-8"?>
<svg width="20px" height="40px" viewBox="0 0 20 40" version="1.1" xmlns="http://www.w3.org/2000/svg" xmlns:xlink="http://www.w3.org/1999/xlink">
    <title>004E - N</title>
    <g id="Original-/-Overview" stroke="none" stroke-width="1" fill="none" fill-rule="evenodd">
        <g id="Original" transform="translate(-300.000000, -30.000000)" fill="#59FFF8">
            <path d="M302,57 L302,46 C302,43.790861 303.790861,42 306,42 L314,42 C316.209139,42 318,43.790861 318,46 L318,57 C318,57.5522847 317.552285,58 317,58 L315,58 C314.447715,58 314,57.5522847 314,57 L314,47 C314,46.4477153 313.552285,46 313,46 L307,46 C306.447715,46 306,46.4477153 306,47 L306,57 C306,57.5522847 305.552285,58 305,58 L303,58 C302.447715,58 302,57.5522847 302,57 Z" id="N"></path>
        </g>
    </g>
</svg>