<?xml version="1.0" encoding="UTF-8"?>
<svg width="20px" height="40px" viewBox="0 0 20 40" version="1.1" xmlns="http://www.w3.org/2000/svg" xmlns:xlink="http://www.w3.org/1999/xlink">
    <title>004F - O</title>
    <g id="Original-/-Overview" stroke="none" stroke-width="1" fill="none" fill-rule="evenodd">
        <g id="Original" transform="translate(-320.000000, -30.000000)" fill="#59FFF8">
            <path d="M334,42 C336.209139,42 338,43.790861 338,46 L338,54 C338,56.209139 336.209139,58 334,58 L326,58 C323.790861,58 322,56.209139 322,54 L322,46 C322,43.790861 323.790861,42 326,42 L334,42 Z M333,46 L327,46 C326.487164,46 326.064493,46.3860402 326.006728,46.8833789 L326,47 L326,53 C326,53.5128358 326.38604,53.9355072 326.883379,53.9932723 L327,54 L333,54 C333.512836,54 333.935507,53.6139598 333.993272,53.1166211 L334,53 L334,47 C334,46.4871642 333.61396,46.0644928 333.116621,46.0067277 L333,46 Z" id="O"></path>
        </g>
    </g>
</svg>