<?xml version="1.0" encoding="UTF-8"?>
<svg width="20px" height="40px" viewBox="0 0 20 40" version="1.1" xmlns="http://www.w3.org/2000/svg" xmlns:xlink="http://www.w3.org/1999/xlink">
    <title>0050 - P</title>
    <g id="Original-/-Overview" stroke="none" stroke-width="1" fill="none" fill-rule="evenodd">
        <g id="Original" transform="translate(-340.000000, -30.000000)" fill="#59FFF8">
            <path d="M343,42 L354,42 C356.209139,42 358,43.790861 358,46 L358,50 C358,52.209139 356.209139,54 354,54 L346,54 L346,57 C346,57.5522847 345.552285,58 345,58 L343,58 C342.447715,58 342,57.5522847 342,57 L342,51 C342,50.4477153 342.447715,50 343,50 L353,50 C353.552285,50 354,49.5522847 354,49 L354,47 C354,46.4477153 353.552285,46 353,46 L343,46 C342.447715,46 342,45.5522847 342,45 L342,43 C342,42.4477153 342.447715,42 343,42 Z" id="P"></path>
        </g>
    </g>
</svg>