<?xml version="1.0" encoding="UTF-8"?>
<svg width="20px" height="40px" viewBox="0 0 20 40" version="1.1" xmlns="http://www.w3.org/2000/svg" xmlns:xlink="http://www.w3.org/1999/xlink">
    <title>0051 - Q</title>
    <g id="Original-/-Overview" stroke="none" stroke-width="1" fill="none" fill-rule="evenodd">
        <g id="Original" transform="translate(-360.000000, -30.000000)" fill="#59FFF8">
            <path d="M374,42 C376.209139,42 378,43.790861 378,46 L378,54 L374,50 L374,47 C374,46.4477153 373.552285,46 373,46 L367,46 C366.487164,46 366.064493,46.3860402 366.006728,46.8833789 L366,47 L366,53 C366,53.5128358 366.38604,53.9355072 366.883379,53.9932723 L367,54 L370,54 L374,58 L366,58 C363.790861,58 362,56.209139 362,54 L362,46 C362,43.790861 363.790861,42 366,42 L374,42 Z M373.335786,51 C373.5568,51 373.77027,51.0731645 373.943816,51.2060806 L374.042893,51.2928932 L377.707107,54.9571068 C377.863387,55.1133871 377.962598,55.3160685 377.991328,55.5327696 L378,55.6642136 L378,57 C378,57.5128358 377.61396,57.9355072 377.116621,57.9932723 L377,58 L375.664214,58 C375.4432,58 375.22973,57.9268355 375.056184,57.7939194 L374.957107,57.7071068 L371.292893,54.0428932 C371.136613,53.8866129 371.037402,53.6839315 371.008672,53.4672304 L371,53.3357864 L371,52 C371,51.4871642 371.38604,51.0644928 371.883379,51.0067277 L372,51 L373.335786,51 Z" id="Q"></path>
        </g>
    </g>
</svg>