<?xml version="1.0" encoding="UTF-8"?>
<svg width="20px" height="40px" viewBox="0 0 20 40" version="1.1" xmlns="http://www.w3.org/2000/svg" xmlns:xlink="http://www.w3.org/1999/xlink">
    <title>0052 - R</title>
    <g id="Original-/-Overview" stroke="none" stroke-width="1" fill="none" fill-rule="evenodd">
        <g id="Original" transform="translate(-380.000000, -30.000000)" fill="#59FFF8">
            <path d="M386,54 L386,57 C386,57.5522847 385.552285,58 385,58 L383,58 C382.447715,58 382,57.5522847 382,57 L382,51 C382,50.4477153 382.447715,50 383,50 L393,50 C393.552285,50 394,49.5522847 394,49 L394,47 C394,46.4477153 393.552285,46 393,46 L383,46 C382.447715,46 382,45.5522847 382,45 L382,43 C382,42.4477153 382.447715,42 383,42 L394,42 C396.209139,42 398,43.790861 398,46 L398,50 C398,50.7290322 397.804967,51.4125119 397.464229,52.0011092 C397.805185,52.5882535 398,53.271376 398,54 L398,57 C398,57.5522847 397.552285,58 397,58 L395,58 C394.447715,58 394,57.5522847 394,57 L394,55 C394,54.4477153 393.552285,54 393,54 L386,54 Z" id="Path"></path>
        </g>
    </g>
</svg>