<?xml version="1.0" encoding="UTF-8"?>
<svg width="20px" height="40px" viewBox="0 0 20 40" version="1.1" xmlns="http://www.w3.org/2000/svg" xmlns:xlink="http://www.w3.org/1999/xlink">
    <title>0053 - S</title>
    <g id="Original-/-Overview" stroke="none" stroke-width="1" fill="none" fill-rule="evenodd">
        <g id="Original" transform="translate(-400.000000, -30.000000)" fill="#59FFF8">
            <path d="M406,42 L417,42 C417.552285,42 418,42.4477153 418,43 L418,45 C418,45.5522847 417.552285,46 417,46 L407,46 C406.447715,46 406,46.4477153 406,47 C406,47.5522847 406.447715,48 407,48 L414,48 C416.209139,48 418,49.790861 418,52 L418,54 C418,56.209139 416.209139,58 414,58 L403,58 C402.447715,58 402,57.5522847 402,57 L402,55 C402,54.4477153 402.447715,54 403,54 L413,54 C413.552285,54 414,53.5522847 414,53 C414,52.4477153 413.552285,52 413,52 L406,52 C403.790861,52 402,50.209139 402,48 L402,46 C402,43.790861 403.790861,42 406,42 Z" id="Path-19"></path>
        </g>
    </g>
</svg>