<?xml version="1.0" encoding="UTF-8"?>
<svg width="20px" height="40px" viewBox="0 0 20 40" version="1.1" xmlns="http://www.w3.org/2000/svg" xmlns:xlink="http://www.w3.org/1999/xlink">
    <title>0054 - T</title>
    <g id="Original-/-Overview" stroke="none" stroke-width="1" fill="none" fill-rule="evenodd">
        <g id="Original" transform="translate(-420.000000, -30.000000)" fill="#59FFF8">
            <path d="M438,43 L438,45 C438,45.5522847 437.552285,46 437,46 L423,46 C422.447715,46 422,45.5522847 422,45 L422,43 C422,42.4477153 422.447715,42 423,42 L437,42 C437.552285,42 438,42.4477153 438,43 Z M429,58 L431,58 C431.552285,58 432,57.5522847 432,57 L432,48 L428,48 L428,57 C428,57.5522847 428.447715,58 429,58 Z" id="Shape"></path>
        </g>
    </g>
</svg>