<?xml version="1.0" encoding="UTF-8"?>
<svg width="20px" height="40px" viewBox="0 0 20 40" version="1.1" xmlns="http://www.w3.org/2000/svg" xmlns:xlink="http://www.w3.org/1999/xlink">
    <title>0055 - U</title>
    <g id="Original-/-Overview" stroke="none" stroke-width="1" fill="none" fill-rule="evenodd">
        <g id="Original" transform="translate(-440.000000, -30.000000)" fill="#59FFF8">
            <path d="M443,42 L445,42 C445.552285,42 446,42.4477153 446,43 L446,53 C446,53.5522847 446.447715,54 447,54 L453,54 C453.552285,54 454,53.5522847 454,53 L454,43 C454,42.4477153 454.447715,42 455,42 L457,42 C457.552285,42 458,42.4477153 458,43 L458,54 C458,56.209139 456.209139,58 454,58 L446,58 C443.790861,58 442,56.209139 442,54 L442,43 C442,42.4477153 442.447715,42 443,42 Z" id="Path-22"></path>
        </g>
    </g>
</svg>