<?xml version="1.0" encoding="UTF-8"?>
<svg width="20px" height="40px" viewBox="0 0 20 40" version="1.1" xmlns="http://www.w3.org/2000/svg" xmlns:xlink="http://www.w3.org/1999/xlink">
    <title>0056 - V</title>
    <g id="Original-/-Overview" stroke="none" stroke-width="1" fill="none" fill-rule="evenodd">
        <g id="Original" transform="translate(-460.000000, -30.000000)" fill="#59FFF8">
            <path d="M469.25,58 L470.75,58 L477.707107,51.0428932 C477.894643,50.8553568 478,50.6010029 478,50.3357864 L478,43 C478,42.4477153 477.552285,42 477,42 L475,42 C474.447715,42 474,42.4477153 474,43 L474,48.8357864 C474,49.1010029 473.894643,49.3553568 473.707107,49.5428932 L470,53.25 L466.292893,49.5428932 C466.105357,49.3553568 466,49.1010029 466,48.8357864 L466,43 C466,42.4477153 465.552285,42 465,42 L463,42 C462.447715,42 462,42.4477153 462,43 L462,50.3357864 C462,50.6010029 462.105357,50.8553568 462.292893,51.0428932 L469.25,58 Z" id="Path-41"></path>
        </g>
    </g>
</svg>