<?xml version="1.0" encoding="UTF-8"?>
<svg width="20px" height="40px" viewBox="0 0 20 40" version="1.1" xmlns="http://www.w3.org/2000/svg" xmlns:xlink="http://www.w3.org/1999/xlink">
    <title>0057 - W</title>
    <g id="Original-/-Overview" stroke="none" stroke-width="1" fill="none" fill-rule="evenodd">
        <g id="Original" transform="translate(-480.000000, -30.000000)" fill="#59FFF8">
            <path d="M482,43 L482,54 C482,56.209139 483.790861,58 486,58 L494,58 C496.209139,58 498,56.209139 498,54 L498,43 C498,42.4477153 497.552285,42 497,42 L495,42 C494.447715,42 494,42.4477153 494,43 L494,53 C494,53.5522847 493.552285,54 493,54 L492,54 L492,47 C492,46.4477153 491.552285,46 491,46 L489,46 C488.447715,46 488,46.4477153 488,47 L488,54 L487,54 C486.447715,54 486,53.5522847 486,53 L486,43 C486,42.4477153 485.552285,42 485,42 L483,42 C482.447715,42 482,42.4477153 482,43 Z" id="Path-14"></path>
        </g>
    </g>
</svg>