<?xml version="1.0" encoding="UTF-8"?>
<svg width="20px" height="40px" viewBox="0 0 20 40" version="1.1" xmlns="http://www.w3.org/2000/svg" xmlns:xlink="http://www.w3.org/1999/xlink">
    <title>0058 - X</title>
    <g id="Original-/-Overview" stroke="none" stroke-width="1" fill="none" fill-rule="evenodd">
        <g id="Original" transform="translate(-500.000000, -30.000000)" fill="#59FFF8">
            <path d="M504.335786,42 C504.601003,42 504.855357,42.1053568 505.042893,42.2928932 L510,47.25 L514.957107,42.2928932 C515.113387,42.1366129 515.316068,42.0374017 515.53277,42.0086724 L515.664214,42 L517,42 C517.512836,42 517.935507,42.3860402 517.993272,42.8833789 L518,43 L518,44.3357864 C518,44.5568002 517.926836,44.7702705 517.793919,44.943816 L517.707107,45.0428932 L512.75,50 L517.707107,54.9571068 C517.894643,55.1446432 518,55.3989971 518,55.6642136 L518,57 C518,57.5522847 517.552285,58 517,58 L515.664214,58 C515.398997,58 515.144643,57.8946432 514.957107,57.7071068 L510,52.75 L505.042893,57.7071068 C504.886613,57.8633871 504.683932,57.9625983 504.46723,57.9913276 L504.335786,58 L503,58 C502.487164,58 502.064493,57.6139598 502.006728,57.1166211 L502,57 L502,55.6642136 C502,55.4431998 502.073164,55.2297295 502.206081,55.056184 L502.292893,54.9571068 L507.25,50 L502.292893,45.0428932 C502.105357,44.8553568 502,44.6010029 502,44.3357864 L502,43 C502,42.4477153 502.447715,42 503,42 L504.335786,42 Z" id="Path"></path>
        </g>
    </g>
</svg>