<?xml version="1.0" encoding="UTF-8"?>
<svg width="20px" height="40px" viewBox="0 0 20 40" version="1.1" xmlns="http://www.w3.org/2000/svg" xmlns:xlink="http://www.w3.org/1999/xlink">
    <title>0059 - Y</title>
    <g id="Original-/-Overview" stroke="none" stroke-width="1" fill="none" fill-rule="evenodd">
        <g id="Original" transform="translate(-520.000000, -30.000000)" fill="#59FFF8">
            <path d="M523,42 L524.335786,42 C524.601003,42 524.855357,42.1053568 525.042893,42.2928932 L530,47.25 L534.957107,42.2928932 C535.144643,42.1053568 535.398997,42 535.664214,42 L537,42 C537.552285,42 538,42.4477153 538,43 L538,44.5732692 C538,44.8458652 537.888717,45.1066467 537.691905,45.2952574 L532,50.75 L532,57 C532,57.5522847 531.552285,58 531,58 L529,58 C528.447715,58 528,57.5522847 528,57 L528,50.75 L522.292893,45.0428932 C522.105357,44.8553568 522,44.6010029 522,44.3357864 L522,43 C522,42.4477153 522.447715,42 523,42 Z" id="Path-24"></path>
        </g>
    </g>
</svg>