<?xml version="1.0" encoding="UTF-8"?>
<svg width="20px" height="40px" viewBox="0 0 20 40" version="1.1" xmlns="http://www.w3.org/2000/svg" xmlns:xlink="http://www.w3.org/1999/xlink">
    <title>005A - Z</title>
    <g id="Original-/-Overview" stroke="none" stroke-width="1" fill="none" fill-rule="evenodd">
        <g id="Original" transform="translate(-540.000000, -30.000000)" fill="#59FFF8">
            <path d="M543,42 L557,42 C557.552285,42 558,42.4477153 558,43 L558,44.5857864 C558,44.8510029 557.894643,45.1053568 557.707107,45.2928932 L549,54 L557,54 C557.552285,54 558,54.4477153 558,55 L558,57 C558,57.5522847 557.552285,58 557,58 L543,58 C542.447715,58 542,57.5522847 542,57 L542,55.4142136 C542,55.1489971 542.105357,54.8946432 542.292893,54.7071068 L551,46 L543,46 C542.447715,46 542,45.5522847 542,45 L542,43 C542,42.4477153 542.447715,42 543,42 Z" id="Path-25"></path>
        </g>
    </g>
</svg>