<?xml version="1.0" encoding="UTF-8"?>
<svg width="20px" height="40px" viewBox="0 0 20 40" version="1.1" xmlns="http://www.w3.org/2000/svg" xmlns:xlink="http://www.w3.org/1999/xlink">
    <title>005E - Circumflex Accent</title>
    <g id="Original-/-Overview" stroke="none" stroke-width="1" fill="none" fill-rule="evenodd">
        <g id="Original" transform="translate(-400.000000, -70.000000)" fill="#59FFF8">
            <path d="M406.335786,90 L405,90 C404.447715,90 404,89.5522847 404,89 L404,87.6642136 C404,87.3989971 404.105357,87.1446432 404.292893,86.9571068 L408.957107,82.2928932 C409.144643,82.1053568 409.398997,82 409.664214,82 L410.335786,82 C410.601003,82 410.855357,82.1053568 411.042893,82.2928932 L415.707107,86.9571068 C415.894643,87.1446432 416,87.3989971 416,87.6642136 L416,89 C416,89.5522847 415.552285,90 415,90 L413.664214,90 C413.398997,90 413.144643,89.8946432 412.957107,89.7071068 L410,86.75 L407.042893,89.7071068 C406.855357,89.8946432 406.601003,90 406.335786,90 Z" id="Path-60"></path>
        </g>
    </g>
</svg>