<?xml version="1.0" encoding="UTF-8"?>
<svg width="20px" height="40px" viewBox="0 0 20 40" version="1.1" xmlns="http://www.w3.org/2000/svg" xmlns:xlink="http://www.w3.org/1999/xlink">
    <title>007B - Left Curly Bracket</title>
    <g id="Original-/-Overview" stroke="none" stroke-width="1" fill="none" fill-rule="evenodd">
        <g id="Original" transform="translate(-200.000000, -110.000000)" fill="#59FFF8">
            <path d="M213,122 L209,122 C207.343146,122 206,123.343146 206,125 L206,127 C206,127.512836 206.38604,127.935507 206.883379,127.993272 L207,128 L205,128 C204.447715,128 204,128.447715 204,129 L204,131 C204,131.552285 204.447715,132 205,132 L207,132 C206.447715,132 206,132.447715 206,133 L206,135 C206,136.656854 207.343146,138 209,138 L213,138 C213.552285,138 214,137.552285 214,137 L214,135 C214,134.447715 213.552285,134 213,134 L211,134 C210.447715,134 210,133.552285 210,133 L210,131 C210,130.447715 209.552285,130 209,130 C209.552285,130 210,129.552285 210,129 L210,127 C210,126.447715 210.447715,126 211,126 L213,126 C213.552285,126 214,125.552285 214,125 L214,123 C214,122.447715 213.552285,122 213,122 Z" id="Path-56"></path>
        </g>
    </g>
</svg>