<?xml version="1.0" encoding="UTF-8"?>
<svg width="20px" height="40px" viewBox="0 0 20 40" version="1.1" xmlns="http://www.w3.org/2000/svg" xmlns:xlink="http://www.w3.org/1999/xlink">
    <title>007D - Right Curly Bracket</title>
    <g id="Original-/-Overview" stroke="none" stroke-width="1" fill="none" fill-rule="evenodd">
        <g id="Original" transform="translate(-220.000000, -110.000000)" fill="#59FFF8">
            <path d="M226,122 L230,122 C231.656854,122 233,123.343146 233,125 L233,127 C233,127.512836 232.61396,127.935507 232.116621,127.993272 L232,128 L234,128 C234.552285,128 235,128.447715 235,129 L235,131 C235,131.552285 234.552285,132 234,132 L232,132 C232.552285,132 233,132.447715 233,133 L233,135 C233,136.656854 231.656854,138 230,138 L226,138 C225.447715,138 225,137.552285 225,137 L225,135 C225,134.447715 225.447715,134 226,134 L228,134 C228.552285,134 229,133.552285 229,133 L229,131 C229,130.447715 229.447715,130 230,130 C229.447715,130 229,129.552285 229,129 L229,127 C229,126.447715 228.552285,126 228,126 L226,126 C225.447715,126 225,125.552285 225,125 L225,123 C225,122.447715 225.447715,122 226,122 Z" id="Path-56"></path>
        </g>
    </g>
</svg>