<?xml version="1.0" encoding="UTF-8"?>
<svg width="20px" height="40px" viewBox="0 0 20 40" version="1.1" xmlns="http://www.w3.org/2000/svg" xmlns:xlink="http://www.w3.org/1999/xlink">
    <title>007E - Tilde</title>
    <g id="Original-/-Overview" stroke="none" stroke-width="1" fill="none" fill-rule="evenodd">
        <g id="Original" transform="translate(-460.000000, -70.000000)" fill="#59FFF8">
            <path d="M463,94 L465,94 C465.552285,94 466,93.5522847 466,93 L466,90 C466,89.4477153 466.447715,89 467,89 C467.512836,89 467.935507,89.3860402 467.993272,89.8833789 L468,90 C468,92.209139 469.790861,94 472,94 L474,94 C476.209139,94 478,92.209139 478,90 L478,87 C478,86.4477153 477.552285,86 477,86 L475,86 C474.447715,86 474,86.4477153 474,87 L474,90 C474,90.5522847 473.552285,91 473,91 C472.487164,91 472.064493,90.6139598 472.006728,90.1166211 L472,90 L472,90 C472,87.790861 470.209139,86 468,86 L466,86 C463.790861,86 462,87.790861 462,90 L462,93 C462,93.5522847 462.447715,94 463,94 Z" id="Path-97"></path>
        </g>
    </g>
</svg>