<?xml version="1.0" encoding="UTF-8"?>
<svg width="20px" height="40px" viewBox="0 0 20 40" version="1.1" xmlns="http://www.w3.org/2000/svg" xmlns:xlink="http://www.w3.org/1999/xlink">
    <title>00A1 - Inverted Exclamation Mark</title>
    <g id="Original-/-Overview" stroke="none" stroke-width="1" fill="none" fill-rule="evenodd">
        <g id="Original" transform="translate(-480.000000, -70.000000)" fill="#59FFF8">
            <path d="M489,98 L491,98 C491.552285,98 492,97.5522847 492,97 L492,89 C492,88.4477153 491.552285,88 491,88 L489,88 C488.447715,88 488,88.4477153 488,89 L488,97 C488,97.5522847 488.447715,98 489,98 Z M489,86 L491,86 C491.552285,86 492,85.5522847 492,85 L492,83 C492,82.4477153 491.552285,82 491,82 L489,82 C488.447715,82 488,82.4477153 488,83 L488,85 C488,85.5522847 488.447715,86 489,86 Z" id="Shape"></path>
        </g>
    </g>
</svg>