<?xml version="1.0" encoding="UTF-8"?>
<svg width="20px" height="40px" viewBox="0 0 20 40" version="1.1" xmlns="http://www.w3.org/2000/svg" xmlns:xlink="http://www.w3.org/1999/xlink">
    <title>00A3 - Pound Sign</title>
    <g id="Original-/-Overview" stroke="none" stroke-width="1" fill="none" fill-rule="evenodd">
        <g id="Original" transform="translate(-280.000000, -70.000000)" fill="#59FFF8">
            <path d="M297,82 C297.552285,82 298,82.4477153 298,83 L298,85 C298,85.5522847 297.552285,86 297,86 L291,86 C290.447715,86 290,86.4477153 290,87 L290,88 L294,88 C294.552285,88 295,88.4477153 295,89 L295,91 C295,91.5522847 294.552285,92 294,92 L290,92 L290,94 L297,94 C297.512836,94 297.935507,94.3860402 297.993272,94.8833789 L298,95 L298,97 C298,97.5128358 297.61396,97.9355072 297.116621,97.9932723 L297,98 L283,98 C282.487164,98 282.064493,97.6139598 282.006728,97.1166211 L282,97 L282,95 C282,94.4871642 282.38604,94.0644928 282.883379,94.0067277 L283,94 L285,94 C285.552285,94 286,93.5522847 286,93 L286,92 L285,92 C284.447715,92 284,91.5522847 284,91 L284,89 C284,88.4477153 284.447715,88 285,88 L286,88 L286,86 C286,83.790861 287.790861,82 290,82 L297,82 Z" id="Path"></path>
        </g>
    </g>
</svg>