<?xml version="1.0" encoding="UTF-8"?>
<svg width="20px" height="40px" viewBox="0 0 20 40" version="1.1" xmlns="http://www.w3.org/2000/svg" xmlns:xlink="http://www.w3.org/1999/xlink">
    <title>00A4 - Currency Sign</title>
    <g id="Original-/-Overview" stroke="none" stroke-width="1" fill="none" fill-rule="evenodd">
        <g id="Original" transform="translate(-500.000000, -70.000000)" fill="#59FFF8">
            <path d="M504.335786,82 C504.601003,82 504.855357,82.1053568 505.042893,82.2928932 L506.903256,84.1522241 C507.251772,84.0530757 507.619688,84 508,84 L512,84 C512.380674,84 512.748928,84.0531768 513.097738,84.1525072 L514.957107,82.2928932 C515.113387,82.1366129 515.316068,82.0374017 515.53277,82.0086724 L515.664214,82 L517,82 C517.512836,82 517.935507,82.3860402 517.993272,82.8833789 L518,83 L518,84.3357864 C518,84.5568002 517.926836,84.7702705 517.793919,84.943816 L517.707107,85.0428932 L515.847776,86.9032564 C515.946924,87.2517724 516,87.6196879 516,88 L516,92 C516,92.3803121 515.946924,92.7482276 515.847776,93.0967436 L517.707107,94.9571068 C517.894643,95.1446432 518,95.3989971 518,95.6642136 L518,97 C518,97.5522847 517.552285,98 517,98 L515.664214,98 C515.398997,98 515.144643,97.8946432 514.957107,97.7071068 L513.096744,95.8477759 C512.748228,95.9469243 512.380312,96 512,96 L508,96 C507.619688,96 507.251772,95.9469243 506.903256,95.8477759 L505.042893,97.7071068 C504.886613,97.8633871 504.683932,97.9625983 504.46723,97.9913276 L504.335786,98 L503,98 C502.487164,98 502.064493,97.6139598 502.006728,97.1166211 L502,97 L502,95.6642136 C502,95.4431998 502.073164,95.2297295 502.206081,95.056184 L502.292893,94.9571068 L504.152507,93.0977383 C504.053177,92.7489277 504,92.3806739 504,92 L504,88 C504,87.6196879 504.053076,87.2517724 504.152224,86.9032564 L502.292893,85.0428932 C502.105357,84.8553568 502,84.6010029 502,84.3357864 L502,83 C502,82.4477153 502.447715,82 503,82 L504.335786,82 Z M511,88 L509,88 C508.487164,88 508.064493,88.3860402 508.006728,88.8833789 L508,89 L508,91 C508,91.5128358 508.38604,91.9355072 508.883379,91.9932723 L509,92 L511,92 C511.512836,92 511.935507,91.6139598 511.993272,91.1166211 L512,91 L512,89 C512,88.4871642 511.61396,88.0644928 511.116621,88.0067277 L511,88 Z" id="Shape"></path>
        </g>
    </g>
</svg>