<?xml version="1.0" encoding="UTF-8"?>
<svg width="20px" height="40px" viewBox="0 0 20 40" version="1.1" xmlns="http://www.w3.org/2000/svg" xmlns:xlink="http://www.w3.org/1999/xlink">
    <title>00A5 - Yen Sign</title>
    <g id="Original-/-Overview" stroke="none" stroke-width="1" fill="none" fill-rule="evenodd">
        <g id="Original" transform="translate(-320.000000, -70.000000)" fill="#59FFF8">
            <path d="M324.335786,82 C324.601003,82 324.855357,82.1053568 325.042893,82.2928932 L330,87.25 L334.957107,82.2928932 C335.144643,82.1053568 335.398997,82 335.664214,82 L337,82 C337.552285,82 338,82.4477153 338,83 L338,84.5732692 C338,84.8458652 337.888717,85.1066467 337.691905,85.2952574 L332,90.75 L332,91 L335,91 C335.552285,91 336,91.4477153 336,92 C336,92.5522847 335.552285,93 335,93 L332,93 L332,94 L335,94 C335.552285,94 336,94.4477153 336,95 C336,95.5522847 335.552285,96 335,96 L332,96 L332,97 C332,97.5522847 331.552285,98 331,98 L329,98 C328.447715,98 328,97.5522847 328,97 L328,96 L325,96 C324.447715,96 324,95.5522847 324,95 C324,94.4477153 324.447715,94 325,94 L328,94 L328,93 L325,93 C324.447715,93 324,92.5522847 324,92 C324,91.4477153 324.447715,91 325,91 L328,91 L328,90.75 L322.292893,85.0428932 C322.105357,84.8553568 322,84.6010029 322,84.3357864 L322,83 C322,82.4477153 322.447715,82 323,82 L324.335786,82 Z" id="Path"></path>
        </g>
    </g>
</svg>