<?xml version="1.0" encoding="UTF-8"?>
<svg width="20px" height="40px" viewBox="0 0 20 40" version="1.1" xmlns="http://www.w3.org/2000/svg" xmlns:xlink="http://www.w3.org/1999/xlink">
    <title>00B1 - Plus-minus Sign</title>
    <g id="Original-/-Overview" stroke="none" stroke-width="1" fill="none" fill-rule="evenodd">
        <g id="Original" transform="translate(-580.000000, -110.000000)" fill="#59FFF8">
            <path d="M591,122 C591.552285,122 592,122.447715 592,123 L592,127 L596,127 C596.552285,127 597,127.447715 597,128 L597,130 C597,130.552285 596.552285,131 596,131 L592,131 L592,134 L596,134 C596.552285,134 597,134.447715 597,135 L597,137 C597,137.552285 596.552285,138 596,138 L584,138 C583.447715,138 583,137.552285 583,137 L583,135 C583,134.447715 583.447715,134 584,134 L588,134 L588,131 L584,131 C583.447715,131 583,130.552285 583,130 L583,128 C583,127.447715 583.447715,127 584,127 L588,127 L588,123 C588,122.447715 588.447715,122 589,122 L591,122 Z" id="Path"></path>
        </g>
    </g>
</svg>