<?xml version="1.0" encoding="UTF-8"?>
<svg width="20px" height="40px" viewBox="0 0 20 40" version="1.1" xmlns="http://www.w3.org/2000/svg" xmlns:xlink="http://www.w3.org/1999/xlink">
    <title>00BF - Inverted Question Mark</title>
    <g id="Original-/-Overview" stroke="none" stroke-width="1" fill="none" fill-rule="evenodd">
        <g id="Original" transform="translate(-600.000000, -110.000000)" fill="#59FFF8">
            <path d="M608,122 L610,122 C610.552285,122 611,122.447715 611,123 L611,125 C611,125.552285 610.552285,126 610,126 L608,126 C607.447715,126 607,125.552285 607,125 L607,123 C607,122.447715 607.447715,122 608,122 Z M610,128 L606,128 C603.790861,128 602,129.790861 602,132 L602,134 C602,136.209139 603.790861,138 606,138 L617,138 C617.552285,138 618,137.552285 618,137 L618,135 C618,134.447715 617.552285,134 617,134 L607,134 C606.447715,134 606,133.552285 606,133 C606,132.447715 606.447715,132 607,132 L610,132 C610.552285,132 611,131.552285 611,131 L611,129 C611,128.447715 610.552285,128 610,128 Z" id="Shape"></path>
        </g>
    </g>
</svg>