<?xml version="1.0" encoding="UTF-8"?>
<svg width="20px" height="40px" viewBox="0 0 20 40" version="1.1" xmlns="http://www.w3.org/2000/svg" xmlns:xlink="http://www.w3.org/1999/xlink">
    <title>00C0 - A with Grave</title>
    <g id="Original-/-Overview" stroke="none" stroke-width="1" fill="none" fill-rule="evenodd">
        <g id="Original" transform="translate(-40.000000, -150.000000)" fill="#59FFF8">
            <path d="M48,174 L48,170 L54,170 L54,167 C54,166.487164 53.6139598,166.064493 53.1166211,166.006728 L53,166 L47,166 C46.4871642,166 46.0644928,166.38604 46.0067277,166.883379 L46,167 L46,177 C46,177.552285 45.5522847,178 45,178 L43,178 C42.4477153,178 42,177.552285 42,177 L42,166 C42,163.790861 43.790861,162 46,162 L54,162 C56.209139,162 58,163.790861 58,166 L58,177 C58,177.552285 57.5522847,178 57,178 L55,178 C54.4477153,178 54,177.552285 54,177 L54,174 L48,174 Z M51.6642136,160 L53,160 C53.5522847,160 54,159.552285 54,159 L54,157.664214 C54,157.398997 53.8946432,157.144643 53.7071068,156.957107 L49.0428932,152.292893 C48.8553568,152.105357 48.6010029,152 48.3357864,152 L47,152 C46.4477153,152 46,152.447715 46,153 L46,154.335786 C46,154.601003 46.1053568,154.855357 46.2928932,155.042893 L50.9571068,159.707107 C51.1446432,159.894643 51.3989971,160 51.6642136,160 Z" id="Shape"></path>
        </g>
    </g>
</svg>