<?xml version="1.0" encoding="UTF-8"?>
<svg width="20px" height="40px" viewBox="0 0 20 40" version="1.1" xmlns="http://www.w3.org/2000/svg" xmlns:xlink="http://www.w3.org/1999/xlink">
    <title>00C1 - A with Acute</title>
    <g id="Original-/-Overview" stroke="none" stroke-width="1" fill="none" fill-rule="evenodd">
        <g id="Original" transform="translate(-60.000000, -150.000000)" fill="#59FFF8">
            <path d="M68,174 L68,170 L74,170 L74,167 C74,166.447715 73.5522847,166 73,166 L73,166 L67,166 C66.4477153,166 66,166.447715 66,167 L66,167 L66,177 C66,177.552285 65.5522847,178 65,178 L63,178 C62.4477153,178 62,177.552285 62,177 L62,166 C62,163.790861 63.790861,162 66,162 L74,162 C76.209139,162 78,163.790861 78,166 L78,177 C78,177.552285 77.5522847,178 77,178 L75,178 C74.4477153,178 74,177.552285 74,177 L74,174 L68,174 Z" id="Combined-Shape"></path>
            <path d="M71.6642136,160 L73,160 C73.5522847,160 74,159.552285 74,159 L74,157.664214 C74,157.398997 73.8946432,157.144643 73.7071068,156.957107 L69.0428932,152.292893 C68.8553568,152.105357 68.6010029,152 68.3357864,152 L67,152 C66.4477153,152 66,152.447715 66,153 L66,154.335786 C66,154.601003 66.1053568,154.855357 66.2928932,155.042893 L70.9571068,159.707107 C71.1446432,159.894643 71.3989971,160 71.6642136,160 Z" id="Path-60" transform="translate(70.000000, 156.000000) scale(-1, 1) translate(-70.000000, -156.000000) "></path>
        </g>
    </g>
</svg>