<?xml version="1.0" encoding="UTF-8"?>
<svg width="20px" height="40px" viewBox="0 0 20 40" version="1.1" xmlns="http://www.w3.org/2000/svg" xmlns:xlink="http://www.w3.org/1999/xlink">
    <title>00C2 - A with Circumflex</title>
    <g id="Original-/-Overview" stroke="none" stroke-width="1" fill="none" fill-rule="evenodd">
        <g id="Original" transform="translate(-80.000000, -150.000000)" fill="#59FFF8">
            <g id="Group" transform="translate(82.000000, 153.000000)">
                <path d="M6,21 L6,17 L12,17 L12,14 C12,13.4477153 11.5522847,13 11,13 L11,13 L5,13 C4.44771525,13 4,13.4477153 4,14 L4,14 L4,24 C4,24.5522847 3.55228475,25 3,25 L1,25 C0.44771525,25 6.76353751e-17,24.5522847 0,24 L0,13 C-2.705415e-16,10.790861 1.790861,9 4,9 L12,9 C14.209139,9 16,10.790861 16,13 L16,24 C16,24.5522847 15.5522847,25 15,25 L13,25 C12.4477153,25 12,24.5522847 12,24 L12,21 L6,21 Z" id="Combined-Shape"></path>
                <path d="M10.6642136,7 L12,7 C12.5522847,7 13,6.55228475 13,6 L13,4.66421356 C13,4.39899707 12.8946432,4.14464316 12.7071068,3.95710678 L9.04289322,0.292893219 C8.85535684,0.10535684 8.60100293,7.58177816e-17 8.33578644,0 L7.66421356,0 C7.39899707,-3.95369731e-16 7.14464316,0.10535684 6.95710678,0.292893219 L3.29289322,3.95710678 C3.10535684,4.14464316 3,4.39899707 3,4.66421356 L3,6 C3,6.55228475 3.44771525,7 4,7 L5.33578644,7 C5.60100293,7 5.85535684,6.89464316 6.04289322,6.70710678 L8,4.75 L8,4.75 L9.95710678,6.70710678 C10.1446432,6.89464316 10.3989971,7 10.6642136,7 Z" id="Path-60" transform="translate(8.000000, 3.500000) scale(-1, 1) translate(-8.000000, -3.500000) "></path>
            </g>
        </g>
    </g>
</svg>