<?xml version="1.0" encoding="UTF-8"?>
<svg width="20px" height="40px" viewBox="0 0 20 40" version="1.1" xmlns="http://www.w3.org/2000/svg" xmlns:xlink="http://www.w3.org/1999/xlink">
    <title>00C3 - A with Tilde</title>
    <g id="Original-/-Overview" stroke="none" stroke-width="1" fill="none" fill-rule="evenodd">
        <g id="Original" transform="translate(-100.000000, -150.000000)" fill="#59FFF8">
            <path d="M108,174 L108,170 L114,170 L114,167 C114,166.487164 113.61396,166.064493 113.116621,166.006728 L113,166 L107,166 C106.487164,166 106.064493,166.38604 106.006728,166.883379 L106,167 L106,177 C106,177.552285 105.552285,178 105,178 L103,178 C102.447715,178 102,177.552285 102,177 L102,166 C102,163.790861 103.790861,162 106,162 L114,162 C116.209139,162 118,163.790861 118,166 L118,177 C118,177.552285 117.552285,178 117,178 L115,178 C114.447715,178 114,177.552285 114,177 L114,174 L108,174 Z M107.80036,155.004895 L108,155 L109,155 C110.054362,155 110.918165,155.815878 110.994514,156.850738 L111,157 C111.512836,157 111.935507,156.61396 111.993272,156.116621 L112,156 C112,155.447715 112.447715,155 113,155 L115,155 C115.512836,155 115.935507,155.38604 115.993272,155.883379 L116,156 C116,158.209139 114.209139,160 112,160 L111,160 C109.945638,160 109.081835,159.184122 109.005486,158.149262 L109,158 C108.487164,158 108.064493,158.38604 108.006728,158.883379 L108,159 C108,159.552285 107.552285,160 107,160 L105,160 C104.487164,160 104.064493,159.61396 104.006728,159.116621 L104,159 C104,156.857805 105.683968,155.108921 107.80036,155.004895 L107.80036,155.004895 Z" id="Shape"></path>
        </g>
    </g>
</svg>