<?xml version="1.0" encoding="UTF-8"?>
<svg width="20px" height="40px" viewBox="0 0 20 40" version="1.1" xmlns="http://www.w3.org/2000/svg" xmlns:xlink="http://www.w3.org/1999/xlink">
    <title>00C4 - A with Diaeresis</title>
    <g id="Original-/-Overview" stroke="none" stroke-width="1" fill="none" fill-rule="evenodd">
        <g id="Original" transform="translate(-120.000000, -150.000000)" fill="#59FFF8">
            <path d="M128,174 L128,170 L134,170 L134,167 C134,166.487164 133.61396,166.064493 133.116621,166.006728 L133,166 L127,166 C126.487164,166 126.064493,166.38604 126.006728,166.883379 L126,167 L126,177 C126,177.552285 125.552285,178 125,178 L123,178 C122.447715,178 122,177.552285 122,177 L122,166 C122,163.790861 123.790861,162 126,162 L134,162 C136.209139,162 138,163.790861 138,166 L138,177 C138,177.552285 137.552285,178 137,178 L135,178 C134.447715,178 134,177.552285 134,177 L134,174 L128,174 Z M129,159 L129,157 C129,156.447715 128.552285,156 128,156 L126,156 C125.447715,156 125,156.447715 125,157 L125,159 C125,159.552285 125.447715,160 126,160 L128,160 C128.552285,160 129,159.552285 129,159 Z M135,159 L135,157 C135,156.447715 134.552285,156 134,156 L132,156 C131.447715,156 131,156.447715 131,157 L131,159 C131,159.552285 131.447715,160 132,160 L134,160 C134.552285,160 135,159.552285 135,159 Z" id="Shape"></path>
        </g>
    </g>
</svg>