<?xml version="1.0" encoding="UTF-8"?>
<svg width="20px" height="40px" viewBox="0 0 20 40" version="1.1" xmlns="http://www.w3.org/2000/svg" xmlns:xlink="http://www.w3.org/1999/xlink">
    <title>00C5 - A with Ring Above</title>
    <g id="Original-/-Overview" stroke="none" stroke-width="1" fill="none" fill-rule="evenodd">
        <g id="Original" transform="translate(-140.000000, -150.000000)" fill="#59FFF8">
            <path d="M148,174 L148,170 L154,170 L154,167 C154,166.487164 153.61396,166.064493 153.116621,166.006728 L153,166 L147,166 C146.487164,166 146.064493,166.38604 146.006728,166.883379 L146,167 L146,177 C146,177.552285 145.552285,178 145,178 L143,178 C142.447715,178 142,177.552285 142,177 L142,166 C142,163.790861 143.790861,162 146,162 L154,162 C156.209139,162 158,163.790861 158,166 L158,177 C158,177.552285 157.552285,178 157,178 L155,178 C154.447715,178 154,177.552285 154,177 L154,174 L148,174 Z M150,154 C151.656854,154 153,155.343146 153,157 C153,158.656854 151.656854,160 150,160 C148.343146,160 147,158.656854 147,157 C147,155.343146 148.343146,154 150,154 Z M150,156 C149.447715,156 149,156.447715 149,157 C149,157.552285 149.447715,158 150,158 C150.552285,158 151,157.552285 151,157 C151,156.447715 150.552285,156 150,156 Z" id="Shape"></path>
        </g>
    </g>
</svg>