<?xml version="1.0" encoding="UTF-8"?>
<svg width="20px" height="40px" viewBox="0 0 20 40" version="1.1" xmlns="http://www.w3.org/2000/svg" xmlns:xlink="http://www.w3.org/1999/xlink">
    <title>00C6 - AE</title>
    <g id="Original-/-Overview" stroke="none" stroke-width="1" fill="none" fill-rule="evenodd">
        <g id="Original" transform="translate(-160.000000, -150.000000)" fill="#59FFF8">
            <path d="M177,162 C177.512836,162 177.935507,162.38604 177.993272,162.883379 L178,163 L178,165 C178,165.512836 177.61396,165.935507 177.116621,165.993272 L177,166 L173,166 L173,168 L177,168 C177.512836,168 177.935507,168.38604 177.993272,168.883379 L178,169 L178,171 C178,171.512836 177.61396,171.935507 177.116621,171.993272 L177,172 L173,172 L173,174 L177,174 C177.512836,174 177.935507,174.38604 177.993272,174.883379 L178,175 L178,177 C178,177.512836 177.61396,177.935507 177.116621,177.993272 L177,178 L173,178 C170.857805,178 169.108921,176.316032 169.004895,174.19964 L169,174 L166,174 L166,177 C166,177.512836 165.61396,177.935507 165.116621,177.993272 L165,178 L163,178 C162.487164,178 162.064493,177.61396 162.006728,177.116621 L162,177 L162,166 C162,163.857805 163.683968,162.108921 165.80036,162.004895 L166,162 L177,162 Z M169,166 L167,166 C166.447715,166 166,166.447715 166,167 L166,170 L169,170 L169,166 Z" id="Shape"></path>
        </g>
    </g>
</svg>