<?xml version="1.0" encoding="UTF-8"?>
<svg width="20px" height="40px" viewBox="0 0 20 40" version="1.1" xmlns="http://www.w3.org/2000/svg" xmlns:xlink="http://www.w3.org/1999/xlink">
    <title>00C7 - C with Cedilla</title>
    <g id="Original-/-Overview" stroke="none" stroke-width="1" fill="none" fill-rule="evenodd">
        <g id="Original" transform="translate(-180.000000, -150.000000)" fill="#59FFF8">
            <path d="M197,162 C197.552285,162 198,162.447715 198,163 L198,165 C198,165.552285 197.552285,166 197,166 L187,166 C186.447715,166 186,166.447715 186,167 L186,173 C186,173.552285 186.447715,174 187,174 L197,174 C197.552285,174 198,174.447715 198,175 L198,177 C198,177.552285 197.552285,178 197,178 L191,178 L191,179 L192,179 C193.656854,179 195,180.343146 195,182 L195,183 C195,184.656854 193.656854,186 192,186 L189,186 C188.447715,186 188,185.552285 188,185 L188,184 C188,183.447715 188.447715,183 189,183 L191.5,183 C191.776142,183 192,182.776142 192,182.5 C192,182.223858 191.776142,182 191.5,182 L189,182 C188.447715,182 188,181.552285 188,181 L188,178 L186,178 C183.790861,178 182,176.209139 182,174 L182,166 C182,163.790861 183.790861,162 186,162 L197,162 Z" id="Path"></path>
        </g>
    </g>
</svg>