<?xml version="1.0" encoding="UTF-8"?>
<svg width="20px" height="40px" viewBox="0 0 20 40" version="1.1" xmlns="http://www.w3.org/2000/svg" xmlns:xlink="http://www.w3.org/1999/xlink">
    <title>00C8 - E with Grave</title>
    <g id="Original-/-Overview" stroke="none" stroke-width="1" fill="none" fill-rule="evenodd">
        <g id="Original" transform="translate(-200.000000, -150.000000)" fill="#59FFF8">
            <path d="M206,162 L217,162 C217.552285,162 218,162.447715 218,163 L218,165 C218,165.552285 217.552285,166 217,166 L202,166 C202,163.790861 203.790861,162 206,162 Z M202,168 L213,168 C213.552285,168 214,168.447715 214,169 L214,171 C214,171.552285 213.552285,172 213,172 L206,172 L206,173 C206,173.552285 206.447715,174 207,174 L217,174 C217.552285,174 218,174.447715 218,175 L218,177 C218,177.552285 217.552285,178 217,178 L206,178 C203.790861,178 202,176.209139 202,174 L202,168 Z M211.664214,160 L213,160 C213.552285,160 214,159.552285 214,159 L214,157.664214 C214,157.398997 213.894643,157.144643 213.707107,156.957107 L209.042893,152.292893 C208.855357,152.105357 208.601003,152 208.335786,152 L207,152 C206.447715,152 206,152.447715 206,153 L206,154.335786 C206,154.601003 206.105357,154.855357 206.292893,155.042893 L210.957107,159.707107 C211.144643,159.894643 211.398997,160 211.664214,160 Z" id="Shape"></path>
        </g>
    </g>
</svg>