<?xml version="1.0" encoding="UTF-8"?>
<svg width="20px" height="40px" viewBox="0 0 20 40" version="1.1" xmlns="http://www.w3.org/2000/svg" xmlns:xlink="http://www.w3.org/1999/xlink">
    <title>00C9 - E with Acute</title>
    <g id="Original-/-Overview" stroke="none" stroke-width="1" fill="none" fill-rule="evenodd">
        <g id="Original" transform="translate(-220.000000, -150.000000)" fill="#59FFF8">
            <path d="M226,162 L237,162 C237.552285,162 238,162.447715 238,163 L238,165 C238,165.552285 237.552285,166 237,166 L222,166 C222,163.790861 223.790861,162 226,162 Z M222,168 L233,168 C233.552285,168 234,168.447715 234,169 L234,171 C234,171.552285 233.552285,172 233,172 L226,172 L226,173 C226,173.552285 226.447715,174 227,174 L237,174 C237.552285,174 238,174.447715 238,175 L238,177 C238,177.552285 237.552285,178 237,178 L226,178 C223.790861,178 222,176.209139 222,174 L222,168 Z M228.335786,160 L227,160 C226.447715,160 226,159.552285 226,159 L226,157.664214 C226,157.398997 226.105357,157.144643 226.292893,156.957107 L230.957107,152.292893 C231.144643,152.105357 231.398997,152 231.664214,152 L233,152 C233.552285,152 234,152.447715 234,153 L234,154.335786 C234,154.601003 233.894643,154.855357 233.707107,155.042893 L229.042893,159.707107 C228.855357,159.894643 228.601003,160 228.335786,160 Z" id="Shape"></path>
        </g>
    </g>
</svg>