<?xml version="1.0" encoding="UTF-8"?>
<svg width="20px" height="40px" viewBox="0 0 20 40" version="1.1" xmlns="http://www.w3.org/2000/svg" xmlns:xlink="http://www.w3.org/1999/xlink">
    <title>00CA - E with Circumflex</title>
    <g id="Original-/-Overview" stroke="none" stroke-width="1" fill="none" fill-rule="evenodd">
        <g id="Original" transform="translate(-240.000000, -150.000000)" fill="#59FFF8">
            <path d="M246,162 L257,162 C257.552285,162 258,162.447715 258,163 L258,165 C258,165.552285 257.552285,166 257,166 L242,166 C242,163.790861 243.790861,162 246,162 Z M242,168 L253,168 C253.552285,168 254,168.447715 254,169 L254,171 C254,171.552285 253.552285,172 253,172 L246,172 L246,173 C246,173.552285 246.447715,174 247,174 L257,174 C257.552285,174 258,174.447715 258,175 L258,177 C258,177.552285 257.552285,178 257,178 L246,178 C243.790861,178 242,176.209139 242,174 L242,168 Z M247.335786,160 L246,160 C245.447715,160 245,159.552285 245,159 L245,157.664214 C245,157.398997 245.105357,157.144643 245.292893,156.957107 L248.957107,153.292893 C249.144643,153.105357 249.398997,153 249.664214,153 L250.335786,153 C250.601003,153 250.855357,153.105357 251.042893,153.292893 L254.707107,156.957107 C254.894643,157.144643 255,157.398997 255,157.664214 L255,159 C255,159.552285 254.552285,160 254,160 L252.664214,160 C252.398997,160 252.144643,159.894643 251.957107,159.707107 L250,157.75 L248.042893,159.707107 C247.855357,159.894643 247.601003,160 247.335786,160 Z" id="Shape"></path>
        </g>
    </g>
</svg>