<?xml version="1.0" encoding="UTF-8"?>
<svg width="20px" height="40px" viewBox="0 0 20 40" version="1.1" xmlns="http://www.w3.org/2000/svg" xmlns:xlink="http://www.w3.org/1999/xlink">
    <title>00CB - E with Diaeresis</title>
    <g id="Original-/-Overview" stroke="none" stroke-width="1" fill="none" fill-rule="evenodd">
        <g id="Original" transform="translate(-260.000000, -150.000000)" fill="#59FFF8">
            <path d="M266,162 L277,162 C277.552285,162 278,162.447715 278,163 L278,165 C278,165.552285 277.552285,166 277,166 L262,166 C262,163.790861 263.790861,162 266,162 Z M262,168 L273,168 C273.552285,168 274,168.447715 274,169 L274,171 C274,171.552285 273.552285,172 273,172 L266,172 L266,173 C266,173.552285 266.447715,174 267,174 L277,174 C277.552285,174 278,174.447715 278,175 L278,177 C278,177.552285 277.552285,178 277,178 L266,178 C263.790861,178 262,176.209139 262,174 L262,168 Z M269,159 L269,157 C269,156.447715 268.552285,156 268,156 L266,156 C265.447715,156 265,156.447715 265,157 L265,159 C265,159.552285 265.447715,160 266,160 L268,160 C268.552285,160 269,159.552285 269,159 Z M275,159 L275,157 C275,156.447715 274.552285,156 274,156 L272,156 C271.447715,156 271,156.447715 271,157 L271,159 C271,159.552285 271.447715,160 272,160 L274,160 C274.552285,160 275,159.552285 275,159 Z" id="Shape"></path>
        </g>
    </g>
</svg>