<?xml version="1.0" encoding="UTF-8"?>
<svg width="20px" height="40px" viewBox="0 0 20 40" version="1.1" xmlns="http://www.w3.org/2000/svg" xmlns:xlink="http://www.w3.org/1999/xlink">
    <title>00CC - I with Grave</title>
    <g id="Original-/-Overview" stroke="none" stroke-width="1" fill="none" fill-rule="evenodd">
        <g id="Original" transform="translate(-280.000000, -150.000000)" fill="#59FFF8">
            <path d="M297,162 L283,162 C282.447715,162 282,162.447715 282,163 L282,165 C282,165.552285 282.447715,166 283,166 L297,166 C297.552285,166 298,165.552285 298,165 L298,163 C298,162.447715 297.552285,162 297,162 Z M297,178 L283,178 C282.447715,178 282,177.552285 282,177 L282,175 C282,174.447715 282.447715,174 283,174 L288,174 L288,168 L292,168 L292,174 L297,174 C297.552285,174 298,174.447715 298,175 L298,177 C298,177.552285 297.552285,178 297,178 Z M291.664214,160 L293,160 C293.552285,160 294,159.552285 294,159 L294,157.664214 C294,157.398997 293.894643,157.144643 293.707107,156.957107 L289.042893,152.292893 C288.855357,152.105357 288.601003,152 288.335786,152 L287,152 C286.447715,152 286,152.447715 286,153 L286,154.335786 C286,154.601003 286.105357,154.855357 286.292893,155.042893 L290.957107,159.707107 C291.144643,159.894643 291.398997,160 291.664214,160 Z" id="Shape"></path>
        </g>
    </g>
</svg>