<?xml version="1.0" encoding="UTF-8"?>
<svg width="20px" height="40px" viewBox="0 0 20 40" version="1.1" xmlns="http://www.w3.org/2000/svg" xmlns:xlink="http://www.w3.org/1999/xlink">
    <title>00CD - I with Acute</title>
    <g id="Original-/-Overview" stroke="none" stroke-width="1" fill="none" fill-rule="evenodd">
        <g id="Original" transform="translate(-300.000000, -150.000000)" fill="#59FFF8">
            <path d="M317,162 L303,162 C302.447715,162 302,162.447715 302,163 L302,165 C302,165.552285 302.447715,166 303,166 L317,166 C317.552285,166 318,165.552285 318,165 L318,163 C318,162.447715 317.552285,162 317,162 Z M317,178 L303,178 C302.447715,178 302,177.552285 302,177 L302,175 C302,174.447715 302.447715,174 303,174 L308,174 L308,168 L312,168 L312,174 L317,174 C317.552285,174 318,174.447715 318,175 L318,177 C318,177.552285 317.552285,178 317,178 Z M308.335786,160 L307,160 C306.447715,160 306,159.552285 306,159 L306,157.664214 C306,157.398997 306.105357,157.144643 306.292893,156.957107 L310.957107,152.292893 C311.144643,152.105357 311.398997,152 311.664214,152 L313,152 C313.552285,152 314,152.447715 314,153 L314,154.335786 C314,154.601003 313.894643,154.855357 313.707107,155.042893 L309.042893,159.707107 C308.855357,159.894643 308.601003,160 308.335786,160 Z" id="Shape"></path>
        </g>
    </g>
</svg>