<?xml version="1.0" encoding="UTF-8"?>
<svg width="20px" height="40px" viewBox="0 0 20 40" version="1.1" xmlns="http://www.w3.org/2000/svg" xmlns:xlink="http://www.w3.org/1999/xlink">
    <title>00CE - I with Circumflex</title>
    <g id="Original-/-Overview" stroke="none" stroke-width="1" fill="none" fill-rule="evenodd">
        <g id="Original" transform="translate(-320.000000, -150.000000)" fill="#59FFF8">
            <path d="M337,162 L323,162 C322.447715,162 322,162.447715 322,163 L322,165 C322,165.552285 322.447715,166 323,166 L337,166 C337.552285,166 338,165.552285 338,165 L338,163 C338,162.447715 337.552285,162 337,162 Z M337,178 L323,178 C322.447715,178 322,177.552285 322,177 L322,175 C322,174.447715 322.447715,174 323,174 L328,174 L328,168 L332,168 L332,174 L337,174 C337.552285,174 338,174.447715 338,175 L338,177 C338,177.552285 337.552285,178 337,178 Z M327.335786,160 L326,160 C325.447715,160 325,159.552285 325,159 L325,157.664214 C325,157.398997 325.105357,157.144643 325.292893,156.957107 L328.957107,153.292893 C329.144643,153.105357 329.398997,153 329.664214,153 L330.335786,153 C330.601003,153 330.855357,153.105357 331.042893,153.292893 L334.707107,156.957107 C334.894643,157.144643 335,157.398997 335,157.664214 L335,159 C335,159.552285 334.552285,160 334,160 L332.664214,160 C332.398997,160 332.144643,159.894643 331.957107,159.707107 L330,157.75 L328.042893,159.707107 C327.855357,159.894643 327.601003,160 327.335786,160 Z" id="Shape"></path>
        </g>
    </g>
</svg>