<?xml version="1.0" encoding="UTF-8"?>
<svg width="20px" height="40px" viewBox="0 0 20 40" version="1.1" xmlns="http://www.w3.org/2000/svg" xmlns:xlink="http://www.w3.org/1999/xlink">
    <title>00CF - I with Diaeresis</title>
    <g id="Original-/-Overview" stroke="none" stroke-width="1" fill="none" fill-rule="evenodd">
        <g id="Original" transform="translate(-340.000000, -150.000000)" fill="#59FFF8">
            <path d="M357,162 L343,162 C342.447715,162 342,162.447715 342,163 L342,165 C342,165.552285 342.447715,166 343,166 L357,166 C357.552285,166 358,165.552285 358,165 L358,163 C358,162.447715 357.552285,162 357,162 Z M357,178 L343,178 C342.447715,178 342,177.552285 342,177 L342,175 C342,174.447715 342.447715,174 343,174 L348,174 L348,168 L352,168 L352,174 L357,174 C357.552285,174 358,174.447715 358,175 L358,177 C358,177.552285 357.552285,178 357,178 Z M349,159 L349,157 C349,156.447715 348.552285,156 348,156 L346,156 C345.447715,156 345,156.447715 345,157 L345,159 C345,159.552285 345.447715,160 346,160 L348,160 C348.552285,160 349,159.552285 349,159 Z M355,159 L355,157 C355,156.447715 354.552285,156 354,156 L352,156 C351.447715,156 351,156.447715 351,157 L351,159 C351,159.552285 351.447715,160 352,160 L354,160 C354.552285,160 355,159.552285 355,159 Z" id="Shape"></path>
        </g>
    </g>
</svg>