<?xml version="1.0" encoding="UTF-8"?>
<svg width="20px" height="40px" viewBox="0 0 20 40" version="1.1" xmlns="http://www.w3.org/2000/svg" xmlns:xlink="http://www.w3.org/1999/xlink">
    <title>00D0 - Eth</title>
    <g id="Original-/-Overview" stroke="none" stroke-width="1" fill="none" fill-rule="evenodd">
        <g id="Original" transform="translate(-360.000000, -150.000000)" fill="#59FFF8">
            <path d="M374,162 C376.209139,162 378,163.790861 378,166 L378,174 C378,176.209139 376.209139,178 374,178 L365,178 C364.447715,178 364,177.552285 364,177 L364,172 L363,172 C362.447715,172 362,171.552285 362,171 L362,169 C362,168.447715 362.447715,168 363,168 L364,168 L364,163 C364,162.447715 364.447715,162 365,162 L374,162 Z M373,166 L368,166 L368,168 L370,168 C370.552285,168 371,168.447715 371,169 L371,171 C371,171.552285 370.552285,172 370,172 L368,172 L368,174 L373,174 C373.512836,174 373.935507,173.61396 373.993272,173.116621 L374,173 L374,167 C374,166.447715 373.552285,166 373,166 Z" id="Shape"></path>
        </g>
    </g>
</svg>