<?xml version="1.0" encoding="UTF-8"?>
<svg width="20px" height="40px" viewBox="0 0 20 40" version="1.1" xmlns="http://www.w3.org/2000/svg" xmlns:xlink="http://www.w3.org/1999/xlink">
    <title>00D1 - N with Tilde</title>
    <g id="Original-/-Overview" stroke="none" stroke-width="1" fill="none" fill-rule="evenodd">
        <g id="Original" transform="translate(-380.000000, -150.000000)" fill="#59FFF8">
            <path d="M382,177 L382,166 C382,163.790861 383.790861,162 386,162 L394,162 C396.209139,162 398,163.790861 398,166 L398,177 C398,177.552285 397.552285,178 397,178 L395,178 C394.447715,178 394,177.552285 394,177 L394,167 C394,166.447715 393.552285,166 393,166 L387,166 C386.447715,166 386,166.447715 386,167 L386,177 C386,177.552285 385.552285,178 385,178 L383,178 C382.447715,178 382,177.552285 382,177 Z M387.80036,155.004895 L388,155 L389,155 C390.054362,155 390.918165,155.815878 390.994514,156.850738 L391,157 C391.512836,157 391.935507,156.61396 391.993272,156.116621 L392,156 C392,155.447715 392.447715,155 393,155 L395,155 C395.512836,155 395.935507,155.38604 395.993272,155.883379 L396,156 C396,158.209139 394.209139,160 392,160 L391,160 C389.945638,160 389.081835,159.184122 389.005486,158.149262 L389,158 C388.487164,158 388.064493,158.38604 388.006728,158.883379 L388,159 C388,159.552285 387.552285,160 387,160 L385,160 C384.487164,160 384.064493,159.61396 384.006728,159.116621 L384,159 C384,156.857805 385.683968,155.108921 387.80036,155.004895 L387.80036,155.004895 Z" id="Shape"></path>
        </g>
    </g>
</svg>