<?xml version="1.0" encoding="UTF-8"?>
<svg width="20px" height="40px" viewBox="0 0 20 40" version="1.1" xmlns="http://www.w3.org/2000/svg" xmlns:xlink="http://www.w3.org/1999/xlink">
    <title>00D2 - O with Grave</title>
    <g id="Original-/-Overview" stroke="none" stroke-width="1" fill="none" fill-rule="evenodd">
        <g id="Original" transform="translate(-400.000000, -150.000000)" fill="#59FFF8">
            <path d="M414,162 C416.209139,162 418,163.790861 418,166 L418,174 C418,176.209139 416.209139,178 414,178 L406,178 C403.790861,178 402,176.209139 402,174 L402,166 C402,163.790861 403.790861,162 406,162 L414,162 Z M413,166 L407,166 C406.487164,166 406.064493,166.38604 406.006728,166.883379 L406,167 L406,173 C406,173.512836 406.38604,173.935507 406.883379,173.993272 L407,174 L413,174 C413.512836,174 413.935507,173.61396 413.993272,173.116621 L414,173 L414,167 C414,166.487164 413.61396,166.064493 413.116621,166.006728 L413,166 Z M411.664214,160 L413,160 C413.552285,160 414,159.552285 414,159 L414,157.664214 C414,157.398997 413.894643,157.144643 413.707107,156.957107 L409.042893,152.292893 C408.855357,152.105357 408.601003,152 408.335786,152 L407,152 C406.447715,152 406,152.447715 406,153 L406,154.335786 C406,154.601003 406.105357,154.855357 406.292893,155.042893 L410.957107,159.707107 C411.144643,159.894643 411.398997,160 411.664214,160 Z" id="Shape"></path>
        </g>
    </g>
</svg>