<?xml version="1.0" encoding="UTF-8"?>
<svg width="20px" height="40px" viewBox="0 0 20 40" version="1.1" xmlns="http://www.w3.org/2000/svg" xmlns:xlink="http://www.w3.org/1999/xlink">
    <title>00D3 - O with Acute</title>
    <g id="Original-/-Overview" stroke="none" stroke-width="1" fill="none" fill-rule="evenodd">
        <g id="Original" transform="translate(-420.000000, -150.000000)" fill="#59FFF8">
            <path d="M434,162 C436.209139,162 438,163.790861 438,166 L438,174 C438,176.209139 436.209139,178 434,178 L426,178 C423.790861,178 422,176.209139 422,174 L422,166 C422,163.790861 423.790861,162 426,162 L434,162 Z M433,166 L427,166 C426.487164,166 426.064493,166.38604 426.006728,166.883379 L426,167 L426,173 C426,173.512836 426.38604,173.935507 426.883379,173.993272 L427,174 L433,174 C433.512836,174 433.935507,173.61396 433.993272,173.116621 L434,173 L434,167 C434,166.487164 433.61396,166.064493 433.116621,166.006728 L433,166 Z M428.335786,160 L427,160 C426.447715,160 426,159.552285 426,159 L426,157.664214 C426,157.398997 426.105357,157.144643 426.292893,156.957107 L430.957107,152.292893 C431.144643,152.105357 431.398997,152 431.664214,152 L433,152 C433.552285,152 434,152.447715 434,153 L434,154.335786 C434,154.601003 433.894643,154.855357 433.707107,155.042893 L429.042893,159.707107 C428.855357,159.894643 428.601003,160 428.335786,160 Z" id="Shape"></path>
        </g>
    </g>
</svg>