<?xml version="1.0" encoding="UTF-8"?>
<svg width="20px" height="40px" viewBox="0 0 20 40" version="1.1" xmlns="http://www.w3.org/2000/svg" xmlns:xlink="http://www.w3.org/1999/xlink">
    <title>00D4 - O with Circumflex</title>
    <g id="Original-/-Overview" stroke="none" stroke-width="1" fill="none" fill-rule="evenodd">
        <g id="Original" transform="translate(-440.000000, -150.000000)" fill="#59FFF8">
            <path d="M454,162 C456.209139,162 458,163.790861 458,166 L458,174 C458,176.209139 456.209139,178 454,178 L446,178 C443.790861,178 442,176.209139 442,174 L442,166 C442,163.790861 443.790861,162 446,162 L454,162 Z M453,166 L447,166 C446.487164,166 446.064493,166.38604 446.006728,166.883379 L446,167 L446,173 C446,173.512836 446.38604,173.935507 446.883379,173.993272 L447,174 L453,174 C453.512836,174 453.935507,173.61396 453.993272,173.116621 L454,173 L454,167 C454,166.487164 453.61396,166.064493 453.116621,166.006728 L453,166 Z M447.335786,160 L446,160 C445.447715,160 445,159.552285 445,159 L445,157.664214 C445,157.398997 445.105357,157.144643 445.292893,156.957107 L448.957107,153.292893 C449.144643,153.105357 449.398997,153 449.664214,153 L450.335786,153 C450.601003,153 450.855357,153.105357 451.042893,153.292893 L454.707107,156.957107 C454.894643,157.144643 455,157.398997 455,157.664214 L455,159 C455,159.552285 454.552285,160 454,160 L452.664214,160 C452.398997,160 452.144643,159.894643 451.957107,159.707107 L450,157.75 L448.042893,159.707107 C447.855357,159.894643 447.601003,160 447.335786,160 Z" id="Shape"></path>
        </g>
    </g>
</svg>