<?xml version="1.0" encoding="UTF-8"?>
<svg width="20px" height="40px" viewBox="0 0 20 40" version="1.1" xmlns="http://www.w3.org/2000/svg" xmlns:xlink="http://www.w3.org/1999/xlink">
    <title>00D5 - O with Tilde</title>
    <g id="Original-/-Overview" stroke="none" stroke-width="1" fill="none" fill-rule="evenodd">
        <g id="Original" transform="translate(-460.000000, -150.000000)" fill="#59FFF8">
            <path d="M474,162 C476.209139,162 478,163.790861 478,166 L478,174 C478,176.209139 476.209139,178 474,178 L466,178 C463.790861,178 462,176.209139 462,174 L462,166 C462,163.790861 463.790861,162 466,162 L474,162 Z M473,166 L467,166 C466.487164,166 466.064493,166.38604 466.006728,166.883379 L466,167 L466,173 C466,173.512836 466.38604,173.935507 466.883379,173.993272 L467,174 L473,174 C473.512836,174 473.935507,173.61396 473.993272,173.116621 L474,173 L474,167 C474,166.487164 473.61396,166.064493 473.116621,166.006728 L473,166 Z M467.80036,155.004895 L468,155 L469,155 C470.054362,155 470.918165,155.815878 470.994514,156.850738 L471,157 C471.512836,157 471.935507,156.61396 471.993272,156.116621 L472,156 C472,155.447715 472.447715,155 473,155 L475,155 C475.512836,155 475.935507,155.38604 475.993272,155.883379 L476,156 C476,158.209139 474.209139,160 472,160 L471,160 C469.945638,160 469.081835,159.184122 469.005486,158.149262 L469,158 C468.487164,158 468.064493,158.38604 468.006728,158.883379 L468,159 C468,159.552285 467.552285,160 467,160 L465,160 C464.487164,160 464.064493,159.61396 464.006728,159.116621 L464,159 C464,156.857805 465.683968,155.108921 467.80036,155.004895 L467.80036,155.004895 Z" id="Shape"></path>
        </g>
    </g>
</svg>