<?xml version="1.0" encoding="UTF-8"?>
<svg width="20px" height="40px" viewBox="0 0 20 40" version="1.1" xmlns="http://www.w3.org/2000/svg" xmlns:xlink="http://www.w3.org/1999/xlink">
    <title>00D6 - O with Diaeresis</title>
    <g id="Original-/-Overview" stroke="none" stroke-width="1" fill="none" fill-rule="evenodd">
        <g id="Original" transform="translate(-480.000000, -150.000000)" fill="#59FFF8">
            <path d="M494,162 C496.209139,162 498,163.790861 498,166 L498,174 C498,176.209139 496.209139,178 494,178 L486,178 C483.790861,178 482,176.209139 482,174 L482,166 C482,163.790861 483.790861,162 486,162 L494,162 Z M493,166 L487,166 C486.487164,166 486.064493,166.38604 486.006728,166.883379 L486,167 L486,173 C486,173.512836 486.38604,173.935507 486.883379,173.993272 L487,174 L493,174 C493.512836,174 493.935507,173.61396 493.993272,173.116621 L494,173 L494,167 C494,166.487164 493.61396,166.064493 493.116621,166.006728 L493,166 Z M489,159 L489,157 C489,156.447715 488.552285,156 488,156 L486,156 C485.447715,156 485,156.447715 485,157 L485,159 C485,159.552285 485.447715,160 486,160 L488,160 C488.552285,160 489,159.552285 489,159 Z M495,159 L495,157 C495,156.447715 494.552285,156 494,156 L492,156 C491.447715,156 491,156.447715 491,157 L491,159 C491,159.552285 491.447715,160 492,160 L494,160 C494.552285,160 495,159.552285 495,159 Z" id="Shape"></path>
        </g>
    </g>
</svg>