<?xml version="1.0" encoding="UTF-8"?>
<svg width="20px" height="40px" viewBox="0 0 20 40" version="1.1" xmlns="http://www.w3.org/2000/svg" xmlns:xlink="http://www.w3.org/1999/xlink">
    <title>00D7 - Multiplication Sign</title>
    <g id="Original-/-Overview" stroke="none" stroke-width="1" fill="none" fill-rule="evenodd">
        <g id="Original" transform="translate(-460.000000, -110.000000)" fill="#59FFF8">
            <path d="M466.335786,124 C466.601003,124 466.855357,124.105357 467.042893,124.292893 L470,127.25 L472.957107,124.292893 C473.113387,124.136613 473.316068,124.037402 473.53277,124.008672 L473.664214,124 L475,124 C475.512836,124 475.935507,124.38604 475.993272,124.883379 L476,125 L476,126.335786 C476,126.5568 475.926836,126.77027 475.793919,126.943816 L475.707107,127.042893 L472.75,130 L475.707107,132.957107 C475.894643,133.144643 476,133.398997 476,133.664214 L476,135 C476,135.552285 475.552285,136 475,136 L473.664214,136 C473.398997,136 473.144643,135.894643 472.957107,135.707107 L470,132.75 L467.042893,135.707107 C466.886613,135.863387 466.683932,135.962598 466.46723,135.991328 L466.335786,136 L465,136 C464.487164,136 464.064493,135.61396 464.006728,135.116621 L464,135 L464,133.664214 C464,133.4432 464.073164,133.22973 464.206081,133.056184 L464.292893,132.957107 L467.25,130 L464.292893,127.042893 C464.105357,126.855357 464,126.601003 464,126.335786 L464,125 C464,124.447715 464.447715,124 465,124 L466.335786,124 Z" id="Path"></path>
        </g>
    </g>
</svg>