<?xml version="1.0" encoding="UTF-8"?>
<svg width="20px" height="40px" viewBox="0 0 20 40" version="1.1" xmlns="http://www.w3.org/2000/svg" xmlns:xlink="http://www.w3.org/1999/xlink">
    <title>00D9 - U with Grave</title>
    <g id="Original-/-Overview" stroke="none" stroke-width="1" fill="none" fill-rule="evenodd">
        <g id="Original" transform="translate(-520.000000, -150.000000)" fill="#59FFF8">
            <path d="M523,162 L525,162 C525.552285,162 526,162.447715 526,163 L526,173 C526,173.552285 526.447715,174 527,174 L533,174 C533.552285,174 534,173.552285 534,173 L534,163 C534,162.447715 534.447715,162 535,162 L537,162 C537.552285,162 538,162.447715 538,163 L538,174 C538,176.209139 536.209139,178 534,178 L526,178 C523.790861,178 522,176.209139 522,174 L522,163 C522,162.447715 522.447715,162 523,162 Z M531.664214,160 L533,160 C533.552285,160 534,159.552285 534,159 L534,157.664214 C534,157.398997 533.894643,157.144643 533.707107,156.957107 L529.042893,152.292893 C528.855357,152.105357 528.601003,152 528.335786,152 L527,152 C526.447715,152 526,152.447715 526,153 L526,154.335786 C526,154.601003 526.105357,154.855357 526.292893,155.042893 L530.957107,159.707107 C531.144643,159.894643 531.398997,160 531.664214,160 Z" id="Shape"></path>
        </g>
    </g>
</svg>