<?xml version="1.0" encoding="UTF-8"?>
<svg width="20px" height="40px" viewBox="0 0 20 40" version="1.1" xmlns="http://www.w3.org/2000/svg" xmlns:xlink="http://www.w3.org/1999/xlink">
    <title>00DA - U with Acute</title>
    <g id="Original-/-Overview" stroke="none" stroke-width="1" fill="none" fill-rule="evenodd">
        <g id="Original" transform="translate(-540.000000, -150.000000)" fill="#59FFF8">
            <path d="M543,162 L545,162 C545.552285,162 546,162.447715 546,163 L546,173 C546,173.552285 546.447715,174 547,174 L553,174 C553.552285,174 554,173.552285 554,173 L554,163 C554,162.447715 554.447715,162 555,162 L557,162 C557.552285,162 558,162.447715 558,163 L558,174 C558,176.209139 556.209139,178 554,178 L546,178 C543.790861,178 542,176.209139 542,174 L542,163 C542,162.447715 542.447715,162 543,162 Z M548.335786,160 L547,160 C546.447715,160 546,159.552285 546,159 L546,157.664214 C546,157.398997 546.105357,157.144643 546.292893,156.957107 L550.957107,152.292893 C551.144643,152.105357 551.398997,152 551.664214,152 L553,152 C553.552285,152 554,152.447715 554,153 L554,154.335786 C554,154.601003 553.894643,154.855357 553.707107,155.042893 L549.042893,159.707107 C548.855357,159.894643 548.601003,160 548.335786,160 Z" id="Shape"></path>
        </g>
    </g>
</svg>