<?xml version="1.0" encoding="UTF-8"?>
<svg width="20px" height="40px" viewBox="0 0 20 40" version="1.1" xmlns="http://www.w3.org/2000/svg" xmlns:xlink="http://www.w3.org/1999/xlink">
    <title>00DB - U with Circumflex</title>
    <g id="Original-/-Overview" stroke="none" stroke-width="1" fill="none" fill-rule="evenodd">
        <g id="Original" transform="translate(-560.000000, -150.000000)" fill="#59FFF8">
            <path d="M563,162 L565,162 C565.552285,162 566,162.447715 566,163 L566,173 C566,173.552285 566.447715,174 567,174 L573,174 C573.552285,174 574,173.552285 574,173 L574,163 C574,162.447715 574.447715,162 575,162 L577,162 C577.552285,162 578,162.447715 578,163 L578,174 C578,176.209139 576.209139,178 574,178 L566,178 C563.790861,178 562,176.209139 562,174 L562,163 C562,162.447715 562.447715,162 563,162 Z M567.335786,160 L566,160 C565.447715,160 565,159.552285 565,159 L565,157.664214 C565,157.398997 565.105357,157.144643 565.292893,156.957107 L568.957107,153.292893 C569.144643,153.105357 569.398997,153 569.664214,153 L570.335786,153 C570.601003,153 570.855357,153.105357 571.042893,153.292893 L574.707107,156.957107 C574.894643,157.144643 575,157.398997 575,157.664214 L575,159 C575,159.552285 574.552285,160 574,160 L572.664214,160 C572.398997,160 572.144643,159.894643 571.957107,159.707107 L570,157.75 L568.042893,159.707107 C567.855357,159.894643 567.601003,160 567.335786,160 Z" id="Shape"></path>
        </g>
    </g>
</svg>