<?xml version="1.0" encoding="UTF-8"?>
<svg width="20px" height="40px" viewBox="0 0 20 40" version="1.1" xmlns="http://www.w3.org/2000/svg" xmlns:xlink="http://www.w3.org/1999/xlink">
    <title>00DC - U with Diaeresis</title>
    <g id="Original-/-Overview" stroke="none" stroke-width="1" fill="none" fill-rule="evenodd">
        <g id="Original" transform="translate(-580.000000, -150.000000)" fill="#59FFF8">
            <path d="M583,162 L585,162 C585.552285,162 586,162.447715 586,163 L586,173 C586,173.552285 586.447715,174 587,174 L593,174 C593.552285,174 594,173.552285 594,173 L594,163 C594,162.447715 594.447715,162 595,162 L597,162 C597.552285,162 598,162.447715 598,163 L598,174 C598,176.209139 596.209139,178 594,178 L586,178 C583.790861,178 582,176.209139 582,174 L582,163 C582,162.447715 582.447715,162 583,162 Z M589,159 L589,157 C589,156.447715 588.552285,156 588,156 L586,156 C585.447715,156 585,156.447715 585,157 L585,159 C585,159.552285 585.447715,160 586,160 L588,160 C588.552285,160 589,159.552285 589,159 Z M595,159 L595,157 C595,156.447715 594.552285,156 594,156 L592,156 C591.447715,156 591,156.447715 591,157 L591,159 C591,159.552285 591.447715,160 592,160 L594,160 C594.552285,160 595,159.552285 595,159 Z" id="Shape"></path>
        </g>
    </g>
</svg>