<?xml version="1.0" encoding="UTF-8"?>
<svg width="20px" height="40px" viewBox="0 0 20 40" version="1.1" xmlns="http://www.w3.org/2000/svg" xmlns:xlink="http://www.w3.org/1999/xlink">
    <title>00DD - Y with Acute</title>
    <g id="Original-/-Overview" stroke="none" stroke-width="1" fill="none" fill-rule="evenodd">
        <g id="Original" transform="translate(-600.000000, -150.000000)" fill="#59FFF8">
            <path d="M603,162 L604.335786,162 C604.601003,162 604.855357,162.105357 605.042893,162.292893 L610,167.25 L614.957107,162.292893 C615.144643,162.105357 615.398997,162 615.664214,162 L617,162 C617.552285,162 618,162.447715 618,163 L618,164.573269 C618,164.845865 617.888717,165.106647 617.691905,165.295257 L612,170.75 L612,177 C612,177.552285 611.552285,178 611,178 L609,178 C608.447715,178 608,177.552285 608,177 L608,170.75 L602.292893,165.042893 C602.105357,164.855357 602,164.601003 602,164.335786 L602,163 C602,162.447715 602.447715,162 603,162 Z M608.335786,160 L607,160 C606.447715,160 606,159.552285 606,159 L606,157.664214 C606,157.398997 606.105357,157.144643 606.292893,156.957107 L610.957107,152.292893 C611.144643,152.105357 611.398997,152 611.664214,152 L613,152 C613.552285,152 614,152.447715 614,153 L614,154.335786 C614,154.601003 613.894643,154.855357 613.707107,155.042893 L609.042893,159.707107 C608.855357,159.894643 608.601003,160 608.335786,160 Z" id="Shape"></path>
        </g>
    </g>
</svg>