<?xml version="1.0" encoding="UTF-8"?>
<svg width="20px" height="40px" viewBox="0 0 20 40" version="1.1" xmlns="http://www.w3.org/2000/svg" xmlns:xlink="http://www.w3.org/1999/xlink">
    <title>00DE - Thorn</title>
    <g id="Original-/-Overview" stroke="none" stroke-width="1" fill="none" fill-rule="evenodd">
        <g id="Original" transform="translate(-620.000000, -150.000000)" fill="#59FFF8">
            <path d="M625,162 C625.552285,162 626,162.447715 626,163 L626,164 L634,164 C636.209139,164 638,165.790861 638,168 L638,172 C638,174.209139 636.209139,176 634,176 L626,176 L626,177 C626,177.552285 625.552285,178 625,178 L623,178 C622.447715,178 622,177.552285 622,177 L622,163 C622,162.447715 622.447715,162 623,162 L625,162 Z M633,168 L626,168 L626,172 L633,172 C633.512836,172 633.935507,171.61396 633.993272,171.116621 L634,171 L634,169 C634,168.487164 633.61396,168.064493 633.116621,168.006728 L633,168 Z" id="Shape"></path>
        </g>
    </g>
</svg>