<?xml version="1.0" encoding="UTF-8"?>
<svg width="20px" height="40px" viewBox="0 0 20 40" version="1.1" xmlns="http://www.w3.org/2000/svg" xmlns:xlink="http://www.w3.org/1999/xlink">
    <title>00DF - Sharp S</title>
    <g id="Original-/-Overview" stroke="none" stroke-width="1" fill="none" fill-rule="evenodd">
        <g id="Original" transform="translate(-640.000000, -150.000000)" fill="#59FFF8">
            <path d="M654,162 C656.209139,162 658,163.790861 658,166 L658,168 C658,168.729032 657.804967,169.412512 657.464229,170.001109 C657.805185,170.588254 658,171.271376 658,172 L658,174 C658,176.209139 656.209139,178 654,178 L649,178 C648.447715,178 648,177.552285 648,177 L648,175 C648,174.447715 648.447715,174 649,174 L653,174 C653.552285,174 654,173.552285 654,173 C654,172.447715 653.552285,172 653,172 L649,172 C648.447715,172 648,171.552285 648,171 L648,169 C648,168.447715 648.447715,168 649,168 L653,168 C653.552285,168 654,167.552285 654,167 C654,166.447715 653.552285,166 653,166 L647,166 C646.447715,166 646,166.447715 646,167 L646,177 C646,177.552285 645.552285,178 645,178 L643,178 C642.447715,178 642,177.552285 642,177 L642,166 C642,163.790861 643.790861,162 646,162 L654,162 Z" id="Path"></path>
        </g>
    </g>
</svg>