<?xml version="1.0" encoding="UTF-8"?>
<svg width="20px" height="40px" viewBox="0 0 20 40" version="1.1" xmlns="http://www.w3.org/2000/svg" xmlns:xlink="http://www.w3.org/1999/xlink">
    <title>00F7 - Division Sign</title>
    <g id="Original-/-Overview" stroke="none" stroke-width="1" fill="none" fill-rule="evenodd">
        <g id="Original" transform="translate(-480.000000, -110.000000)" fill="#59FFF8">
            <path d="M484,128 L496,128 C496.552285,128 497,128.447715 497,129 L497,131 C497,131.552285 496.552285,132 496,132 L484,132 C483.447715,132 483,131.552285 483,131 L483,129 C483,128.447715 483.447715,128 484,128 Z M489,123 L491,123 C491.552285,123 492,123.447715 492,124 L492,126 C492,126.552285 491.552285,127 491,127 L489,127 C488.447715,127 488,126.552285 488,126 L488,124 C488,123.447715 488.447715,123 489,123 Z M489,133 L491,133 C491.552285,133 492,133.447715 492,134 L492,136 C492,136.552285 491.552285,137 491,137 L489,137 C488.447715,137 488,136.552285 488,136 L488,134 C488,133.447715 488.447715,133 489,133 Z" id="Shape"></path>
        </g>
    </g>
</svg>