<?xml version="1.0" encoding="UTF-8"?>
<svg width="20px" height="40px" viewBox="0 0 20 40" version="1.1" xmlns="http://www.w3.org/2000/svg" xmlns:xlink="http://www.w3.org/1999/xlink">
    <title>20AC - Euro Sign</title>
    <g id="Original-/-Overview" stroke="none" stroke-width="1" fill="none" fill-rule="evenodd">
        <g id="Original" transform="translate(-300.000000, -70.000000)" fill="#59FFF8">
            <path d="M317,82 C317.512836,82 317.935507,82.3860402 317.993272,82.8833789 L318,83 L318,85 C318,85.5128358 317.61396,85.9355072 317.116621,85.9932723 L317,86 L309,86 C308.487164,86 308.064493,86.3860402 308.006728,86.8833789 L308,87 L308,88 L314,88 C314.552285,88 315,88.4477153 315,89 L315,91 C315,91.5522847 314.552285,92 314,92 L308,92 L308,93 C308,93.5128358 308.38604,93.9355072 308.883379,93.9932723 L309,94 L317,94 C317.512836,94 317.935507,94.3860402 317.993272,94.8833789 L318,95 L318,97 C318,97.5128358 317.61396,97.9355072 317.116621,97.9932723 L317,98 L309,98 C306.311245,98 304.118182,95.8776933 304.00462,93.2168896 L304,93 L304,92 L303,92 C302.447715,92 302,91.5522847 302,91 L302,89 C302,88.4477153 302.447715,88 303,88 L304,88 L304,87 C304,84.3112453 306.122307,82.1181819 308.78311,82.0046195 L309,82 L317,82 Z" id="Path"></path>
        </g>
    </g>
</svg>